<svg id="eOI1bj7Pku41" xmlns="http://www.w3.org/2000/svg" xmlns:xlink="http://www.w3.org/1999/xlink" viewBox="0 0 640 480" shape-rendering="geometricPrecision" text-rendering="geometricPrecision"><g id="eOI1bj7Pku42" transform="matrix(0.45116452774090 0 0 0.45116452774090 79.36463606709378 90.07125886293974)"><path id="eOI1bj7Pku43" d="M1138,643.730000L1138,123.080000C1137.981445,105.801143,1131.099645,89.237354,1118.868520,77.032485C1106.637396,64.827615,1090.058857,57.981425,1072.780000,58L290.120000,58C272.839411,57.978771,256.258303,64.823788,244.025015,77.028946C231.791727,89.234103,224.908554,105.799408,224.890000,123.080000L224.890000,643.730000Z" transform="matrix(1 0 0 1 -149.27000000000001 -55)" fill="rgb(243,243,255)" stroke="none" stroke-width="1"/><path id="eOI1bj7Pku44" d="M1134.110000,649.710000L230.890000,649.710000C227.629904,649.698972,224.994465,647.050110,225,643.790000L225,125.680000C225,86.680000,256.590000,55,295.410000,55L1069.590000,55C1108.533743,55.115792,1140.033260,86.736099,1140,125.680000L1140,643.790000C1140.005535,647.050110,1137.370096,649.698972,1134.110000,649.710000ZM230.860000,637.710000L1134.410000,637.710000L1134.410000,120.390000C1134.349430,87.607125,1107.782894,61.049532,1075,61L290.290000,61C257.479809,61.038584,230.893063,87.629803,230.860000,120.440000Z" transform="matrix(1 0 0 1 -149.27000000000001 -55)" fill="rgb(1,32,58)" stroke="none" stroke-width="1"/><path id="eOI1bj7Pku45" d="M1111,133.860000C1111,99.490000,1092.220000,88,1058.290000,88L300.290000,88C266.340000,88,251,99.490000,251,133.860000L251,231.330000L1111,231.330000Z" transform="matrix(1 0 0 1 -149.27000000000001 -55)" fill="rgb(164,177,244)" stroke="none" stroke-width="1"/><path id="eOI1bj7Pku46" d="M1110,237.310000L255.310000,237.310000C251.996292,237.310000,249.310000,234.623708,249.310000,231.310000L249.310000,135.680000C249.310000,99.940000,265.740000,84.680000,304.240000,84.680000L1057.550000,84.680000C1082.600000,84.680000,1115.910000,89.960000,1115.910000,135.680000L1115.910000,231.330000C1115.899464,234.601088,1113.270737,237.260950,1110,237.310000ZM255,231L1110,231L1110,133.450000C1110,102.900000,1096.800000,91,1062.910000,91L298.620000,91C266,91,255,101.710000,255,133.450000Z" transform="matrix(1 0 0 1 -149.27000000000001 -55)" fill="rgb(1,32,58)" stroke="none" stroke-width="1"/><rect id="eOI1bj7Pku47" width="854.660000" height="412.400000" rx="0" ry="0" transform="matrix(1 0 0 1 107.07000000254789 176.34000001046772)" fill="rgb(243,243,255)" stroke="none" stroke-width="1"/><path id="eOI1bj7Pku48" d="M1110,649.710000L255.310000,649.710000C251.996292,649.710000,249.310000,647.023708,249.310000,643.710000L249.310000,231.330000C249.310000,228.016292,251.996292,225.330000,255.310000,225.330000L1110,225.330000C1113.313708,225.330000,1116,228.016292,1116,231.330000L1116,643.730000C1115.988980,647.035895,1113.305914,649.710018,1110,649.710000ZM255,644L1110,644L1110,231L255,231Z" transform="matrix(1 0 0 1 -149.27000000000001 -55)" fill="rgb(1,32,58)" stroke="none" stroke-width="1"/><path id="eOI1bj7Pku49" d="" transform="matrix(1 0 0 1 -149.27000000000001 -55)" fill="rgb(243,243,255)" stroke="none" stroke-width="1"/><path id="eOI1bj7Pku410" d="M224.890000,713.660000L1140.380000,713.660000C1140.380000,713.660000,1210.030000,713.660000,1210.030000,643.740000L155.240000,643.740000C155.240000,713.660000,224.890000,713.660000,224.890000,713.660000Z" transform="matrix(1 0 0 1 -149.27000000000001 -55)" fill="rgb(243,243,255)" stroke="none" stroke-width="1"/><path id="eOI1bj7Pku411" d="M1140.380000,719.630000L224.890000,719.630000C224.140000,719.630000,149.270000,718.760000,149.270000,643.740000C149.270000,640.426292,151.956292,637.740000,155.270000,637.740000L1210,637.740000C1213.313708,637.740000,1216,640.426292,1216,643.740000C1216,718.760000,1141.130000,719.630000,1140.380000,719.630000ZM155,644C158.760000,713.180000,216.650000,714,219.190000,714L1144.810000,714C1147.340000,714,1205.220000,712.920000,1209,644Z" transform="matrix(1 0 0 1 -149.27000000000001 -55)" fill="rgb(1,32,58)" stroke="none" stroke-width="1"/><path id="eOI1bj7Pku412" d="M359.550000,162.170000C359.550000,172.663410,351.043410,181.170000,340.550000,181.170000C330.056590,181.170000,321.550000,172.663410,321.550000,162.170000C321.550000,151.676590,330.056590,143.170000,340.550000,143.170000C351.043410,143.170000,359.550000,151.676590,359.550000,162.170000Z" transform="matrix(1 0 0 1 -149.27000000000001 -55)" fill="rgb(1,32,58)" stroke="none" stroke-width="1"/><path id="eOI1bj7Pku413" d="M426.800000,162.170000C426.800000,172.663410,418.293410,181.170000,407.800000,181.170000C397.306590,181.170000,388.800000,172.663410,388.800000,162.170000C388.800000,151.676590,397.306590,143.170000,407.800000,143.170000C418.293410,143.170000,426.800000,151.676590,426.800000,162.170000Z" transform="matrix(1 0 0 1 -149.27000000000001 -55)" fill="rgb(73,90,191)" stroke="none" stroke-width="1"/><path id="eOI1bj7Pku414" d="M494,162.170000C494,172.663410,485.493410,181.170000,475,181.170000C464.506590,181.170000,456,172.663410,456,162.170000C456,151.676590,464.506590,143.170000,475,143.170000C485.493410,143.170000,494,151.676590,494,162.170000Z" transform="matrix(1 0 0 1 -149.27000000000001 -55)" fill="rgb(243,243,255)" stroke="none" stroke-width="1"/><path id="eOI1bj7Pku415" d="M306.300000,678.460000L243.850000,678.460000C240.550000,678.460000,237.850000,677.040000,237.850000,675.300000C237.850000,673.560000,240.520000,672.140000,243.850000,672.140000L306.300000,672.140000C309.600000,672.140000,312.300000,673.550000,312.300000,675.300000C312.300000,677.050000,309.600000,678.460000,306.300000,678.460000Z" transform="matrix(1 0 0 1 -149.27000000000001 -55)" fill="rgb(1,32,58)" stroke="none" stroke-width="1"/><path id="eOI1bj7Pku416" d="M1109.610000,678.460000L398.610000,678.460000C395.310000,678.460000,392.610000,677.010000,392.610000,675.230000C392.610000,673.450000,395.280000,672,398.610000,672L1109.660000,672C1112.960000,672,1115.660000,673.440000,1115.660000,675.230000C1115.660000,677.020000,1112.910000,678.460000,1109.610000,678.460000Z" transform="matrix(1 0 0 1 -149.27000000000001 -55)" fill="rgb(1,32,58)" stroke="none" stroke-width="1"/><g id="eOI1bj7Pku417" transform="matrix(1 0 0 1 -19.99706508650672 0)" opacity="0"><path id="eOI1bj7Pku418" d="M610.060000,341.420000L500.920000,341.420000C497.252829,341.420000,494.280000,338.447171,494.280000,334.780000C494.280000,331.112829,497.252829,328.140000,500.920000,328.140000L610.060000,328.140000C612.432244,328.140000,614.624287,329.405577,615.810409,331.460000C616.996531,333.514423,616.996531,336.045577,615.810409,338.100000C614.624287,340.154423,612.432244,341.420000,610.060000,341.420000Z" transform="matrix(1 0 0 1 -149.27000000000001 -55)" fill="rgb(110,117,244)" stroke="none" stroke-width="1"/><path id="eOI1bj7Pku419" d="M552.650000,373.280000L500.920000,373.280000C497.252829,373.280000,494.280000,370.307171,494.280000,366.640000C494.280000,362.972829,497.252829,360,500.920000,360L552.650000,360C556.317171,360,559.290000,362.972829,559.290000,366.640000C559.290000,370.307171,556.317171,373.280000,552.650000,373.280000Z" transform="matrix(1 0 0 1 -149.27000000000001 -55)" fill="rgb(1,32,58)" stroke="none" stroke-width="1"/><path id="eOI1bj7Pku420" d="M532.930000,402.450000L500.930000,402.450000C497.360306,402.311495,494.537827,399.377380,494.537827,395.805000C494.537827,392.232620,497.360306,389.298505,500.930000,389.160000L532.930000,389.160000C536.499694,389.298505,539.322173,392.232620,539.322173,395.805000C539.322173,399.377380,536.499694,402.311495,532.930000,402.450000Z" transform="matrix(1 0 0 1 -149.27000000000001 -55)" fill="rgb(73,90,191)" stroke="none" stroke-width="1"/><path id="eOI1bj7Pku421" d="M610.060000,373.280000L584.740000,373.280000C581.072829,373.280000,578.100000,370.307171,578.100000,366.640000C578.100000,362.972829,581.072829,360,584.740000,360L610.060000,360C612.432244,360,614.624287,361.265577,615.810409,363.320000C616.996531,365.374423,616.996531,367.905577,615.810409,369.960000C614.624287,372.014423,612.432244,373.280000,610.060000,373.280000Z" transform="matrix(1 0 0 1 -149.27000000000001 -55)" fill="rgb(1,32,58)" stroke="none" stroke-width="1"/><path id="eOI1bj7Pku422" d="M467.910000,366.640000C467.882392,393.468990,446.115699,415.198389,419.286701,415.179989C392.457703,415.161588,370.720836,393.402353,370.730029,366.573350C370.739222,339.744348,392.490996,318.000014,419.320000,318C432.215537,317.999993,444.582177,323.126145,453.696008,332.249355C462.809840,341.372564,467.923270,353.744470,467.910000,366.640000Z" transform="matrix(1 0 0 1 -148.27000001715757 -58.82832008901177)" fill="rgb(1,32,58)" stroke="none" stroke-width="1"/><path id="eOI1bj7Pku423" d="M388.580000,393.280000C388.596530,396.534576,391.245400,399.161075,394.500000,399.150000L444.020000,398.910000C445.584784,398.902064,447.082323,398.272834,448.183166,397.160739C449.284009,396.048644,449.897977,394.544783,449.890000,392.980000L442,341.140000L434.590000,341.140000C434.590000,340.930000,434.590000,340.720000,434.590000,340.510000C434.701403,334.845525,431.732953,329.565931,426.835330,326.717778C421.937707,323.869626,415.880906,323.900696,411.012761,326.798946C406.144616,329.697195,403.230489,335.006966,403.400000,340.670000C403.400000,340.880000,403.400000,341.080000,403.400000,341.300000L395.200000,341.300000ZM406.860000,341.280000C406.860000,341.070000,406.860000,340.860000,406.860000,340.650000C406.826863,333.950786,412.230786,328.493137,418.930000,328.460000C425.629214,328.426863,431.086863,333.830786,431.120000,340.530000C431.120000,340.740000,431.120000,340.950000,431.120000,341.160000Z" transform="matrix(1 0 0 1 -148.22999999745213 -55)" fill="rgb(255,168,29)" stroke="none" stroke-width="1"/></g><g id="eOI1bj7Pku424" transform="matrix(1 0 0 1 -20.00192799500837 0)" opacity="0"><path id="eOI1bj7Pku425" d="M611.060000,473.910000L501.920000,473.910000C498.252829,473.910000,495.280000,470.937171,495.280000,467.270000C495.280000,463.602829,498.252829,460.630000,501.920000,460.630000L611.060000,460.630000C613.432244,460.630000,615.624287,461.895577,616.810409,463.950000C617.996531,466.004423,617.996531,468.535577,616.810409,470.590000C615.624287,472.644423,613.432244,473.910000,611.060000,473.910000Z" transform="matrix(1 0 0 1 -149.27000000000001 -55)" fill="rgb(73,90,191)" stroke="none" stroke-width="1"/><path id="eOI1bj7Pku426" d="M553.650000,505.770000L501.920000,505.770000C498.252829,505.770000,495.280000,502.797171,495.280000,499.130000C495.280000,495.462829,498.252829,492.490000,501.920000,492.490000L553.650000,492.490000C557.317171,492.490000,560.290000,495.462829,560.290000,499.130000C560.290000,502.797171,557.317171,505.770000,553.650000,505.770000Z" transform="matrix(1 0 0 1 -149.27000000000001 -55)" fill="rgb(1,32,58)" stroke="none" stroke-width="1"/><path id="eOI1bj7Pku427" d="M533.930000,534.940000L501.930000,534.940000C499.557756,534.940000,497.365713,533.674423,496.179591,531.620000C494.993469,529.565577,494.993469,527.034423,496.179591,524.980000C497.365713,522.925577,499.557756,521.660000,501.930000,521.660000L533.930000,521.660000C537.597171,521.660000,540.570000,524.632829,540.570000,528.300000C540.570000,531.967171,537.597171,534.940000,533.930000,534.940000Z" transform="matrix(1 0 0 1 -149.27000000000001 -55)" fill="rgb(110,117,244)" stroke="none" stroke-width="1"/><path id="eOI1bj7Pku428" d="M611.060000,505.770000L585.740000,505.770000C582.072829,505.770000,579.100000,502.797171,579.100000,499.130000C579.100000,495.462829,582.072829,492.490000,585.740000,492.490000L611.060000,492.490000C613.432244,492.490000,615.624287,493.755577,616.810409,495.810000C617.996531,497.864423,617.996531,500.395577,616.810409,502.450000C615.624287,504.504423,613.432244,505.770000,611.060000,505.770000Z" transform="matrix(1 0 0 1 -149.27000000000001 -55)" fill="rgb(173,173,234)" stroke="none" stroke-width="1"/><path id="eOI1bj7Pku429" d="M468.910000,507.580000C468.914045,527.233730,457.078036,544.954476,438.921518,552.478436C420.765000,560.002395,399.863935,555.847710,385.965219,541.951854C372.066502,528.055998,367.907515,507.155789,375.427738,488.997722C382.947960,470.839656,400.666270,459,420.320000,459C447.151611,458.999999,468.904478,480.748389,468.910000,507.580000Z" transform="matrix(1 0 0 1 -149.27000000000001 -55)" fill="rgb(1,32,58)" stroke="none" stroke-width="1"/><path id="eOI1bj7Pku430" d="M389.580000,535.530000C389.596530,538.784576,392.245400,541.411075,395.500000,541.400000L445.020000,541.160000C446.584784,541.152064,448.082323,540.522834,449.183166,539.410739C450.284009,538.298644,450.897977,536.794783,450.890000,535.230000L443,483.390000L435.590000,483.390000C435.590000,483.180000,435.590000,482.970000,435.590000,482.770000C435.703587,477.105330,432.736916,471.824407,427.840061,468.974460C422.943206,466.124512,416.886109,466.153642,412.016892,469.050557C407.147674,471.947472,404.231934,477.256684,404.400000,482.920000C404.400000,483.130000,404.400000,483.340000,404.400000,483.550000L396.200000,483.550000ZM407.860000,483.530000C407.860000,483.320000,407.860000,483.110000,407.860000,482.900000C407.826863,476.200786,413.230786,470.743137,419.930000,470.710000C426.629214,470.676863,432.086863,476.080786,432.120000,482.780000C432.120000,482.990000,432.120000,483.200000,432.120000,483.410000Z" transform="matrix(1 0 0 1 -149.27000000000001 -55)" fill="rgb(255,168,29)" stroke="none" stroke-width="1"/></g><g id="eOI1bj7Pku431" transform="matrix(1 0 0 1 -19.99563280029201 0)" opacity="0"><g id="eOI1bj7Pku432"><path id="eOI1bj7Pku433" d="M975.440000,342.330000L866.310000,342.330000C862.642829,342.330000,859.670000,339.357171,859.670000,335.690000C859.670000,332.022829,862.642829,329.050000,866.310000,329.050000L975.440000,329.050000C979.107171,329.050000,982.080000,332.022829,982.080000,335.690000C982.080000,339.357171,979.107171,342.330000,975.440000,342.330000Z" transform="matrix(1 0 0 1 -149.27000000000001 -54.98999896994872)" fill="rgb(110,117,244)" stroke="none" stroke-width="1"/><path id="eOI1bj7Pku434" d="M918,374.190000L866.310000,374.190000C862.642829,374.190000,859.670000,371.217171,859.670000,367.550000C859.670000,363.882829,862.642829,360.910000,866.310000,360.910000L918,360.910000C921.667171,360.910000,924.640000,363.882829,924.640000,367.550000C924.640000,371.217171,921.667171,374.190000,918,374.190000Z" transform="matrix(1 0 0 1 -149.27000000000001 -54.98999896994872)" fill="rgb(1,32,58)" stroke="none" stroke-width="1"/><path id="eOI1bj7Pku435" d="M898.310000,403.350000L866.310000,403.350000C863.937756,403.350000,861.745713,402.084423,860.559591,400.030000C859.373469,397.975577,859.373469,395.444423,860.559591,393.390000C861.745713,391.335577,863.937756,390.070000,866.310000,390.070000L898.310000,390.070000C900.682244,390.070000,902.874287,391.335577,904.060409,393.390000C905.246531,395.444423,905.246531,397.975577,904.060409,400.030000C902.874287,402.084423,900.682244,403.350000,898.310000,403.350000Z" transform="matrix(1 0 0 1 -149.27000000000001 -55)" fill="rgb(73,90,191)" stroke="none" stroke-width="1"/><path id="eOI1bj7Pku436" d="M975.440000,374.190000L950.120000,374.190000C946.452829,374.190000,943.480000,371.217171,943.480000,367.550000C943.480000,363.882829,946.452829,360.910000,950.120000,360.910000L975.440000,360.910000C979.107171,360.910000,982.080000,363.882829,982.080000,367.550000C982.080000,371.217171,979.107171,374.190000,975.440000,374.190000Z" transform="matrix(1 0 0 1 -149.27000000000001 -55)" fill="rgb(1,32,58)" stroke="none" stroke-width="1"/><path id="eOI1bj7Pku437" d="M833.300000,367.550000C833.294477,394.391038,811.531039,416.145521,784.690001,416.139998C757.848963,416.134475,736.094479,394.371037,736.100002,367.529999C736.105525,340.688961,757.868962,318.934478,784.710000,318.940000C811.548751,318.951042,833.300002,340.711247,833.300000,367.550000Z" transform="matrix(1 0 0 1 -149.27000000000001 -54.98999896994872)" fill="rgb(1,32,58)" stroke="none" stroke-width="1"/><path id="eOI1bj7Pku438" d="M754,394.190000C754.016530,397.444576,756.665400,400.071075,759.920000,400.060000L809.430000,399.810000C812.684576,399.793470,815.311075,397.144600,815.300000,393.890000L807.350000,342L799.940000,342C799.940000,341.790000,799.940000,341.580000,799.940000,341.370000C800.051403,335.705525,797.082953,330.425931,792.185330,327.577778C787.287707,324.729626,781.230906,324.760696,776.362761,327.658946C771.494616,330.557195,768.580489,335.866966,768.750000,341.530000C768.750000,341.730000,768.750000,341.940000,768.750000,342.150000L760.560000,342.150000ZM772.280000,342.190000C772.280000,341.990000,772.280000,341.780000,772.280000,341.570000C772.246863,334.870786,777.650786,329.413137,784.350000,329.380000C791.049214,329.346863,796.506863,334.750786,796.540000,341.450000C796.540000,341.660000,796.540000,341.870000,796.540000,342.080000Z" transform="matrix(1 0 0 1 -149.27000000000001 -54.98999896994872)" fill="rgb(255,168,29)" stroke="none" stroke-width="1"/></g></g><g id="eOI1bj7Pku439" transform="matrix(1 0 0 1 -20.00211911185420 0)" opacity="0"><path id="eOI1bj7Pku440" d="M976.440000,474.820000L867.310000,474.820000C863.642829,474.820000,860.670000,471.847171,860.670000,468.180000C860.670000,464.512829,863.642829,461.540000,867.310000,461.540000L976.440000,461.540000C980.107171,461.540000,983.080000,464.512829,983.080000,468.180000C983.080000,471.847171,980.107171,474.820000,976.440000,474.820000Z" transform="matrix(1 0 0 1 -149.27000000000001 -55)" fill="rgb(73,90,191)" stroke="none" stroke-width="1"/><path id="eOI1bj7Pku441" d="M919,506.680000L867.310000,506.680000C864.937756,506.680000,862.745713,505.414423,861.559591,503.360000C860.373469,501.305577,860.373469,498.774423,861.559591,496.720000C862.745713,494.665577,864.937756,493.400000,867.310000,493.400000L919,493.400000C922.667171,493.400000,925.640000,496.372829,925.640000,500.040000C925.640000,503.707171,922.667171,506.680000,919,506.680000Z" transform="matrix(1 0 0 1 -149.27000000000001 -55)" fill="rgb(73,90,191)" stroke="none" stroke-width="1"/><path id="eOI1bj7Pku442" d="M899.310000,535.840000L867.310000,535.840000C864.937756,535.840000,862.745713,534.574423,861.559591,532.520000C860.373469,530.465577,860.373469,527.934423,861.559591,525.880000C862.745713,523.825577,864.937756,522.560000,867.310000,522.560000L899.310000,522.560000C901.682244,522.560000,903.874287,523.825577,905.060409,525.880000C906.246531,527.934423,906.246531,530.465577,905.060409,532.520000C903.874287,534.574423,901.682244,535.840000,899.310000,535.840000Z" transform="matrix(1 0 0 1 -149.27000000000001 -55)" fill="rgb(110,117,244)" stroke="none" stroke-width="1"/><path id="eOI1bj7Pku443" d="M976.440000,506.680000L951.120000,506.680000C947.452829,506.680000,944.480000,503.707171,944.480000,500.040000C944.480000,496.372829,947.452829,493.400000,951.120000,493.400000L976.440000,493.400000C980.107171,493.400000,983.080000,496.372829,983.080000,500.040000C983.080000,503.707171,980.107171,506.680000,976.440000,506.680000Z" transform="matrix(1 0 0 1 -149.27000000000001 -55)" fill="rgb(173,173,234)" stroke="none" stroke-width="1"/><path id="eOI1bj7Pku444" d="M834.300000,508.490000C834.294477,535.331038,812.531039,557.085521,785.690001,557.079998C758.848963,557.074475,737.094479,535.311037,737.100002,508.469999C737.105525,481.628961,758.868962,459.874478,785.710000,459.880000C812.548751,459.891042,834.300002,481.651247,834.300000,508.490000Z" transform="matrix(1 0 0 1 -149.27000000000001 -55)" fill="rgb(1,32,58)" stroke="none" stroke-width="1"/><path id="eOI1bj7Pku445" d="M755,536.440000C755.016530,539.694576,757.665400,542.321075,760.920000,542.310000L810.430000,542.060000C811.994694,542.057375,813.493814,541.431216,814.595519,540.320126C815.697225,539.209037,816.310646,537.704660,816.300000,536.140000L808.380000,484.300000L800.970000,484.300000C800.970000,484.090000,800.970000,483.880000,800.970000,483.670000C801.081403,478.005525,798.112953,472.725931,793.215330,469.877778C788.317707,467.029626,782.260906,467.060696,777.392761,469.958946C772.524616,472.857195,769.610489,478.166966,769.780000,483.830000C769.780000,484.030000,769.780000,484.240000,769.780000,484.450000L761.590000,484.450000ZM773.280000,484.440000C773.280000,484.240000,773.280000,484.030000,773.280000,483.820000C773.246863,477.120786,778.650786,471.663137,785.350000,471.630000C792.049214,471.596863,797.506863,477.000786,797.540000,483.700000C797.540000,483.910000,797.540000,484.120000,797.540000,484.330000Z" transform="matrix(1 0 0 1 -149.27000000000001 -55)" fill="rgb(255,168,29)" stroke="none" stroke-width="1"/></g></g><script><![CDATA[!function(t,n){"object"==typeof exports&&"undefined"!=typeof module?module.exports=n():"function"==typeof define&&define.amd?define(n):(t="undefined"!=typeof globalThis?globalThis:t||self).__SVGATOR_PLAYER__=n()}(this,(function(){"use strict";function t(n){return(t="function"==typeof Symbol&&"symbol"==typeof Symbol.iterator?function(t){return typeof t}:function(t){return t&&"function"==typeof Symbol&&t.constructor===Symbol&&t!==Symbol.prototype?"symbol":typeof t})(n)}function n(t,n){if(!(t instanceof n))throw new TypeError("Cannot call a class as a function")}function e(t,n){for(var e=0;e<n.length;e++){var r=n[e];r.enumerable=r.enumerable||!1,r.configurable=!0,"value"in r&&(r.writable=!0),Object.defineProperty(t,r.key,r)}}function r(t,n,r){return n&&e(t.prototype,n),r&&e(t,r),t}function i(t){return(i=Object.setPrototypeOf?Object.getPrototypeOf:function(t){return t.__proto__||Object.getPrototypeOf(t)})(t)}function u(t,n){return(u=Object.setPrototypeOf||function(t,n){return t.__proto__=n,t})(t,n)}function o(t,n){return!n||"object"!=typeof n&&"function"!=typeof n?function(t){if(void 0===t)throw new ReferenceError("this hasn't been initialised - super() hasn't been called");return t}(t):n}function a(t){var n=function(){if("undefined"==typeof Reflect||!Reflect.construct)return!1;if(Reflect.construct.sham)return!1;if("function"==typeof Proxy)return!0;try{return Boolean.prototype.valueOf.call(Reflect.construct(Boolean,[],(function(){}))),!0}catch(t){return!1}}();return function(){var e,r=i(t);if(n){var u=i(this).constructor;e=Reflect.construct(r,arguments,u)}else e=r.apply(this,arguments);return o(this,e)}}function l(t,n,e){return(l="undefined"!=typeof Reflect&&Reflect.get?Reflect.get:function(t,n,e){var r=function(t,n){for(;!Object.prototype.hasOwnProperty.call(t,n)&&null!==(t=i(t)););return t}(t,n);if(r){var u=Object.getOwnPropertyDescriptor(r,n);return u.get?u.get.call(e):u.value}})(t,n,e||t)}var s=Math.abs;function f(t){return t}function c(t,n,e){var r=1-e;return 3*e*r*(t*r+n*e)+e*e*e}function h(){var t=arguments.length>0&&void 0!==arguments[0]?arguments[0]:0,n=arguments.length>1&&void 0!==arguments[1]?arguments[1]:0,e=arguments.length>2&&void 0!==arguments[2]?arguments[2]:1,r=arguments.length>3&&void 0!==arguments[3]?arguments[3]:1;return t<0||t>1||e<0||e>1?null:s(t-n)<=1e-5&&s(e-r)<=1e-5?f:function(i){if(i<=0)return t>0?i*n/t:0===n&&e>0?i*r/e:0;if(i>=1)return e<1?1+(i-1)*(r-1)/(e-1):1===e&&t<1?1+(i-1)*(n-1)/(t-1):1;for(var u,o=0,a=1;o<a;){var l=c(t,e,u=(o+a)/2);if(s(i-l)<1e-5)break;l<i?o=u:a=u}return c(n,r,u)}}function v(){return 1}function d(t){return 1===t?1:0}function y(){var t=arguments.length>0&&void 0!==arguments[0]?arguments[0]:1,n=arguments.length>1&&void 0!==arguments[1]?arguments[1]:0;if(1===t){if(0===n)return d;if(1===n)return v}var e=1/t;return function(t){return t>=1?1:(t+=n*e)-t%e}}function g(t){var n=arguments.length>1&&void 0!==arguments[1]?arguments[1]:2;if(Number.isInteger(t))return t;var e=Math.pow(10,n);return Math.round(t*e)/e}var p=Math.PI/180;function m(t,n,e){return t>=.5?e:n}function b(t,n,e){return 0===t||n===e?n:t*(e-n)+n}function w(t,n,e){var r=b(t,n,e);return r<=0?0:r}function x(t,n,e){return 0===t?n:1===t?e:{x:b(t,n.x,e.x),y:b(t,n.y,e.y)}}function A(t,n,e){return 0===t?n:1===t?e:{x:w(t,n.x,e.x),y:w(t,n.y,e.y)}}function k(t,n,e){var r=function(t,n,e){return Math.round(b(t,n,e))}(t,n,e);return r<=0?0:r>=255?255:r}function _(t,n,e){return 0===t?n:1===t?e:{r:k(t,n.r,e.r),g:k(t,n.g,e.g),b:k(t,n.b,e.b),a:b(t,null==n.a?1:n.a,null==e.a?1:e.a)}}function S(t,n,e){if(0===t)return n;if(1===t)return e;var r=n.length;if(r!==e.length)return m(t,n,e);for(var i=[],u=0;u<r;u++)i.push(_(t,n[u],e[u]));return i}function M(t,n,e){var r=n.length;if(r!==e.length)return m(t,n,e);for(var i=new Array(r),u=0;u<r;u++)i[u]=b(t,n[u],e[u]);return i}function O(t,n){for(var e=[],r=0;r<t;r++)e.push(n);return e}function E(t,n){if(--n<=0)return t;var e=(t=Object.assign([],t)).length;do{for(var r=0;r<e;r++)t.push(t[r])}while(--n>0);return t}var B,I=function(){function t(e){n(this,t),this.list=e,this.length=e.length}return r(t,[{key:"setAttribute",value:function(t,n){for(var e=this.list,r=0;r<this.length;r++)e[r].setAttribute(t,n)}},{key:"removeAttribute",value:function(t){for(var n=this.list,e=0;e<this.length;e++)n[e].removeAttribute(t)}},{key:"style",value:function(t,n){for(var e=this.list,r=0;r<this.length;r++)e[r].style[t]=n}}]),t}(),j=/-./g,P=function(t,n){return n.toUpperCase()};function T(t){return"function"==typeof t?t:m}function F(t){return t?"function"==typeof t?t:Array.isArray(t)?function(t){var n=arguments.length>1&&void 0!==arguments[1]?arguments[1]:f;if(!Array.isArray(t))return n;switch(t.length){case 1:return y(t[0])||n;case 2:return y(t[0],t[1])||n;case 4:return h(t[0],t[1],t[2],t[3])||n}return n}(t,null):function(t,n){var e=arguments.length>2&&void 0!==arguments[2]?arguments[2]:f;switch(t){case"linear":return f;case"steps":return y(n.steps||1,n.jump||0)||e;case"bezier":case"cubic-bezier":return h(n.x1||0,n.y1||0,n.x2||0,n.y2||0)||e}return e}(t.type,t.value,null):null}function R(t,n,e){var r=arguments.length>3&&void 0!==arguments[3]&&arguments[3],i=n.length-1;if(t<=n[0].t)return r?[0,0,n[0].v]:n[0].v;if(t>=n[i].t)return r?[i,1,n[i].v]:n[i].v;var u,o=n[0],a=null;for(u=1;u<=i;u++){if(!(t>n[u].t)){a=n[u];break}o=n[u]}return null==a?r?[i,1,n[i].v]:n[i].v:o.t===a.t?r?[u,1,a.v]:a.v:(t=(t-o.t)/(a.t-o.t),o.e&&(t=o.e(t)),r?[u,t,e(t,o.v,a.v)]:e(t,o.v,a.v))}function C(t,n){var e=arguments.length>2&&void 0!==arguments[2]?arguments[2]:null;return t&&t.length?"function"!=typeof n?null:("function"!=typeof e&&(e=null),function(r){var i=R(r,t,n);return null!=i&&e&&(i=e(i)),i}):null}function N(t,n){return t.t-n.t}function q(n,e,r,i,u){var o,a="@"===r[0],l="#"===r[0],s=B[r],f=m;switch(a?(o=r.substr(1),r=o.replace(j,P)):l&&(r=r.substr(1)),t(s)){case"function":if(f=s(i,u,R,F,r,a,e,n),l)return f;break;case"string":f=C(i,T(s));break;case"object":if((f=C(i,T(s.i),s.f))&&"function"==typeof s.u)return s.u(e,f,r,a,n)}return f?function(t,n,e){var r=arguments.length>3&&void 0!==arguments[3]&&arguments[3];if(r)return t instanceof I?function(r){return t.style(n,e(r))}:function(r){return t.style[n]=e(r)};if(Array.isArray(n)){var i=n.length;return function(r){var u=e(r);if(null==u)for(var o=0;o<i;o++)t[o].removeAttribute(n);else for(var a=0;a<i;a++)t[a].setAttribute(n,u)}}return function(r){var i=e(r);null==i?t.removeAttribute(n):t.setAttribute(n,i)}}(e,r,f,a):null}function V(n,e,r,i){if(!i||"object"!==t(i))return null;var u=null,o=null;return Array.isArray(i)?o=function(t){if(!t||!t.length)return null;for(var n=0;n<t.length;n++)t[n].e&&(t[n].e=F(t[n].e));return t.sort(N)}(i):(o=i.keys,u=i.data||null),o?q(n,e,r,o,u):null}function L(t,n,e){if(!e)return null;var r=[];for(var i in e)if(e.hasOwnProperty(i)){var u=V(t,n,i,e[i]);u&&r.push(u)}return r.length?r:null}function z(t,n){if(!n.duration||n.duration<0)return null;var e=function(t,n){if(!n)return null;var e=[];if(Array.isArray(n))for(var r=n.length,i=0;i<r;i++){var u=n[i];if(2===u.length){var o=null;if("string"==typeof u[0])o=t.getElementById(u[0]);else if(Array.isArray(u[0])){o=[];for(var a=0;a<u[0].length;a++)if("string"==typeof u[0][a]){var l=t.getElementById(u[0][a]);l&&o.push(l)}o=o.length?1===o.length?o[0]:new I(o):null}if(o){var s=L(t,o,u[1]);s&&(e=e.concat(s))}}}else for(var f in n)if(n.hasOwnProperty(f)){var c=t.getElementById(f);if(c){var h=L(t,c,n[f]);h&&(e=e.concat(h))}}return e.length?e:null}(t,n.elements);return e?function(t,n){var e=arguments.length>2&&void 0!==arguments[2]?arguments[2]:1/0,r=arguments.length>3&&void 0!==arguments[3]?arguments[3]:1,i=arguments.length>4&&void 0!==arguments[4]&&arguments[4],u=arguments.length>5&&void 0!==arguments[5]?arguments[5]:1,o=t.length,a=r>0?n:0;i&&e%2==0&&(a=n-a);var l=null;return function(s,f){var c=s%n,h=1+(s-c)/n;f*=r,i&&h%2==0&&(f=-f);var v=!1;if(h>e)c=a,v=!0,-1===u&&(c=r>0?0:n);else if(f<0&&(c=n-c),c===l)return!1;l=c;for(var d=0;d<o;d++)t[d](c);return v}}(e,n.duration,n.iterations||1/0,n.direction||1,!!n.alternate,n.fill||1):null}var D=function(){function t(e,r){var i=arguments.length>2&&void 0!==arguments[2]?arguments[2]:{};n(this,t),this._id=0,this._running=!1,this._rollingBack=!1,this._animations=e,this.duration=r.duration,this.alternate=r.alternate,this.fill=r.fill,this.iterations=r.iterations,this.direction=i.direction||1,this.speed=i.speed||1,this.fps=i.fps||100,this.offset=i.offset||0,this.rollbackStartOffset=0}return r(t,[{key:"_rollback",value:function(){var t=this,n=1/0,e=null;this.rollbackStartOffset=this.offset,this._rollingBack||(this._rollingBack=!0,this._running=!0);this._id=window.requestAnimationFrame((function r(i){if(t._rollingBack){null==e&&(e=i);var u=i-e,o=t.rollbackStartOffset-u,a=Math.round(o*t.speed);if(a>t.duration&&n!=1/0){var l=!!t.alternate&&a/t.duration%2>1,s=a%t.duration;a=(s+=l?t.duration:0)||t.duration}var f=t.fps?1e3/t.fps:0,c=Math.max(0,a);if(c<n-f){t.offset=c,n=c;for(var h=t._animations,v=h.length,d=0;d<v;d++)h[d](c,t.direction)}var y=!1;if(t.iterations>0&&-1===t.fill){var g=t.iterations*t.duration,p=g==a;a=p?0:a,t.offset=p?0:t.offset,y=a>g}a>0&&t.offset>=a&&!y?t._id=window.requestAnimationFrame(r):t.stop()}}))}},{key:"_start",value:function(){var t=this,n=arguments.length>0&&void 0!==arguments[0]?arguments[0]:0,e=-1/0,r=null,i={},u=function u(o){t._running=!0,null==r&&(r=o);var a=Math.round((o-r+n)*t.speed),l=t.fps?1e3/t.fps:0;if(a>e+l&&!t._rollingBack){t.offset=a,e=a;for(var s=t._animations,f=s.length,c=0,h=0;h<f;h++)i[h]?c++:(i[h]=s[h](a,t.direction),i[h]&&c++);if(c===f)return void t._stop()}t._id=window.requestAnimationFrame(u)};this._id=window.requestAnimationFrame(u)}},{key:"_stop",value:function(){this._id&&window.cancelAnimationFrame(this._id),this._running=!1,this._rollingBack=!1}},{key:"play",value:function(){!this._rollingBack&&this._running||(this._rollingBack=!1,this.rollbackStartOffset>this.duration&&(this.offset=this.rollbackStartOffset-(this.rollbackStartOffset-this.offset)%this.duration,this.rollbackStartOffset=0),this._start(this.offset))}},{key:"stop",value:function(){this._stop(),this.offset=0,this.rollbackStartOffset=0;var t=this.direction,n=this._animations;window.requestAnimationFrame((function(){for(var e=0;e<n.length;e++)n[e](0,t)}))}},{key:"reachedToEnd",value:function(){return this.iterations>0&&this.offset>=this.iterations*this.duration}},{key:"restart",value:function(){this._stop(),this.offset=0,this._start()}},{key:"pause",value:function(){this._stop()}},{key:"reverse",value:function(){this.direction=-this.direction}}],[{key:"build",value:function(n,e){return(n=function(t,n){if(B=n,!t||!t.root||!Array.isArray(t.animations))return null;for(var e=document.getElementsByTagName("svg"),r=!1,i=0;i<e.length;i++)if(e[i].id===t.root&&!e[i].svgatorAnimation){(r=e[i]).svgatorAnimation=!0;break}if(!r)return null;var u=t.animations.map((function(t){return z(r,t)})).filter((function(t){return!!t}));return u.length?{element:r,animations:u,animationSettings:t.animationSettings,options:t.options||void 0}:null}(n,e))?{el:n.element,options:n.options||{},player:new t(n.animations,n.animationSettings,n.options)}:null}}]),t}();!function(){for(var t=0,n=["ms","moz","webkit","o"],e=0;e<n.length&&!window.requestAnimationFrame;++e)window.requestAnimationFrame=window[n[e]+"RequestAnimationFrame"],window.cancelAnimationFrame=window[n[e]+"CancelAnimationFrame"]||window[n[e]+"CancelRequestAnimationFrame"];window.requestAnimationFrame||(window.requestAnimationFrame=function(n){var e=Date.now(),r=Math.max(0,16-(e-t)),i=window.setTimeout((function(){n(e+r)}),r);return t=e+r,i},window.cancelAnimationFrame=window.clearTimeout)}();var U=function(t,n){var e=!1,r=null;return function(i){e&&clearTimeout(e),e=setTimeout((function(){return function(){for(var i=0,u=window.innerHeight,o=0,a=window.innerWidth,l=t.parentNode;l instanceof Element;){var s=window.getComputedStyle(l);if("visible"!==s.overflowY||"visible"!==s.overflowX){var f=l.getBoundingClientRect();"visible"!==s.overflowY&&(i=Math.max(i,f.top),u=Math.min(u,f.bottom)),"visible"!==s.overflowX&&(o=Math.max(o,f.left),a=Math.min(a,f.right))}if(l===l.parentNode)break;l=l.parentNode}e=!1;var c=t.getBoundingClientRect(),h=Math.min(c.height,Math.max(0,i-c.top)),v=Math.min(c.height,Math.max(0,c.bottom-u)),d=Math.min(c.width,Math.max(0,o-c.left)),y=Math.min(c.width,Math.max(0,c.right-a)),g=(c.height-h-v)/c.height,p=(c.width-d-y)/c.width,m=Math.round(g*p*100);null!==r&&r===m||(r=m,n(m))}()}),100)}},W=function(){function t(e,r,i){n(this,t),r=Math.max(1,r||1),r=Math.min(r,100),this.el=e,this.onTresholdChange=i&&i.call?i:function(){},this.tresholdPercent=r||1,this.currentVisibility=null,this.visibilityCalculator=U(e,this.onVisibilityUpdate.bind(this)),this.bindScrollWatchers(),this.visibilityCalculator()}return r(t,[{key:"bindScrollWatchers",value:function(){for(var t=this.el.parentNode;t&&(t.addEventListener("scroll",this.visibilityCalculator),t!==t.parentNode&&t!==document);)t=t.parentNode}},{key:"onVisibilityUpdate",value:function(t){var n=this.currentVisibility>=this.tresholdPercent,e=t>=this.tresholdPercent;if(null===this.currentVisibility||n!==e)return this.currentVisibility=t,void this.onTresholdChange(e);this.currentVisibility=t}}]),t}(),Y=/\.0+$/g;function G(t){return Number.isInteger(t)?t+"":t.toFixed(6).replace(Y,"")}function H(t){var n=arguments.length>1&&void 0!==arguments[1]?arguments[1]:" ";return t&&t.length?t.map(G).join(n):""}function Q(t){return G(t.x)+","+G(t.y)}function X(t){return t?null==t.a||t.a>=1?"rgb("+t.r+","+t.g+","+t.b+")":"rgba("+t.r+","+t.g+","+t.b+","+t.a+")":"transparent"}var $={f:null,i:A,u:function(t,n){return function(e){var r=n(e);t.setAttribute("rx",G(r.x)),t.setAttribute("ry",G(r.y))}}},Z={f:null,i:function(t,n,e){return 0===t?n:1===t?e:{width:w(t,n.width,e.width),height:w(t,n.height,e.height)}},u:function(t,n){return function(e){var r=n(e);t.setAttribute("width",G(r.width)),t.setAttribute("height",G(r.height))}}},J=Math.sin,K=Math.cos,tt=Math.acos,nt=Math.asin,et=Math.tan,rt=Math.atan2,it=Math.PI/180,ut=180/Math.PI,ot=Math.sqrt,at=function(){function t(){var e=arguments.length>0&&void 0!==arguments[0]?arguments[0]:1,r=arguments.length>1&&void 0!==arguments[1]?arguments[1]:0,i=arguments.length>2&&void 0!==arguments[2]?arguments[2]:0,u=arguments.length>3&&void 0!==arguments[3]?arguments[3]:1,o=arguments.length>4&&void 0!==arguments[4]?arguments[4]:0,a=arguments.length>5&&void 0!==arguments[5]?arguments[5]:0;n(this,t),this.m=[e,r,i,u,o,a],this.i=null,this.w=null,this.s=null}return r(t,[{key:"determinant",get:function(){var t=this.m;return t[0]*t[3]-t[1]*t[2]}},{key:"isIdentity",get:function(){if(null===this.i){var t=this.m;this.i=1===t[0]&&0===t[1]&&0===t[2]&&1===t[3]&&0===t[4]&&0===t[5]}return this.i}},{key:"point",value:function(t,n){var e=this.m;return{x:e[0]*t+e[2]*n+e[4],y:e[1]*t+e[3]*n+e[5]}}},{key:"translateSelf",value:function(){var t=arguments.length>0&&void 0!==arguments[0]?arguments[0]:0,n=arguments.length>1&&void 0!==arguments[1]?arguments[1]:0;if(!t&&!n)return this;var e=this.m;return e[4]+=e[0]*t+e[2]*n,e[5]+=e[1]*t+e[3]*n,this.w=this.s=this.i=null,this}},{key:"rotateSelf",value:function(){var t=arguments.length>0&&void 0!==arguments[0]?arguments[0]:0;if(t%=360){var n=J(t*=it),e=K(t),r=this.m,i=r[0],u=r[1];r[0]=i*e+r[2]*n,r[1]=u*e+r[3]*n,r[2]=r[2]*e-i*n,r[3]=r[3]*e-u*n,this.w=this.s=this.i=null}return this}},{key:"scaleSelf",value:function(){var t=arguments.length>0&&void 0!==arguments[0]?arguments[0]:1,n=arguments.length>1&&void 0!==arguments[1]?arguments[1]:1;if(1!==t||1!==n){var e=this.m;e[0]*=t,e[1]*=t,e[2]*=n,e[3]*=n,this.w=this.s=this.i=null}return this}},{key:"skewSelf",value:function(t,n){if(n%=360,(t%=360)||n){var e=this.m,r=e[0],i=e[1],u=e[2],o=e[3];t&&(t=et(t*it),e[2]+=r*t,e[3]+=i*t),n&&(n=et(n*it),e[0]+=u*n,e[1]+=o*n),this.w=this.s=this.i=null}return this}},{key:"resetSelf",value:function(){var t=arguments.length>0&&void 0!==arguments[0]?arguments[0]:1,n=arguments.length>1&&void 0!==arguments[1]?arguments[1]:0,e=arguments.length>2&&void 0!==arguments[2]?arguments[2]:0,r=arguments.length>3&&void 0!==arguments[3]?arguments[3]:1,i=arguments.length>4&&void 0!==arguments[4]?arguments[4]:0,u=arguments.length>5&&void 0!==arguments[5]?arguments[5]:0,o=this.m;return o[0]=t,o[1]=n,o[2]=e,o[3]=r,o[4]=i,o[5]=u,this.w=this.s=this.i=null,this}},{key:"recomposeSelf",value:function(){var t=arguments.length>0&&void 0!==arguments[0]?arguments[0]:null,n=arguments.length>1&&void 0!==arguments[1]?arguments[1]:null,e=arguments.length>2&&void 0!==arguments[2]?arguments[2]:null,r=arguments.length>3&&void 0!==arguments[3]?arguments[3]:null,i=arguments.length>4&&void 0!==arguments[4]?arguments[4]:null;return this.isIdentity||this.resetSelf(),t&&(t.x||t.y)&&this.translateSelf(t.x,t.y),n&&this.rotateSelf(n),e&&(e.x&&this.skewSelf(e.x,0),e.y&&this.skewSelf(0,e.y)),!r||1===r.x&&1===r.y||this.scaleSelf(r.x,r.y),i&&(i.x||i.y)&&this.translateSelf(i.x,i.y),this}},{key:"decompose",value:function(){var t=arguments.length>0&&void 0!==arguments[0]?arguments[0]:0,n=arguments.length>1&&void 0!==arguments[1]?arguments[1]:0,e=this.m,r=e[0]*e[0]+e[1]*e[1],i=[[e[0],e[1]],[e[2],e[3]]],u=ot(r);if(0===u)return{origin:{x:e[4],y:e[5]},translate:{x:t,y:n},scale:{x:0,y:0},skew:{x:0,y:0},rotate:0};i[0][0]/=u,i[0][1]/=u;var o=e[0]*e[3]-e[1]*e[2]<0;o&&(u=-u);var a=i[0][0]*i[1][0]+i[0][1]*i[1][1];i[1][0]-=i[0][0]*a,i[1][1]-=i[0][1]*a;var l=ot(i[1][0]*i[1][0]+i[1][1]*i[1][1]);if(0===l)return{origin:{x:e[4],y:e[5]},translate:{x:t,y:n},scale:{x:u,y:0},skew:{x:0,y:0},rotate:0};i[1][0]/=l,i[1][1]/=l,a/=l;var s=0;return i[1][1]<0?(s=tt(i[1][1])*ut,i[0][1]<0&&(s=360-s)):s=nt(i[0][1])*ut,o&&(s=-s),a=rt(a,ot(i[0][0]*i[0][0]+i[0][1]*i[0][1]))*ut,o&&(a=-a),{origin:{x:e[4],y:e[5]},translate:{x:t,y:n},scale:{x:u,y:l},skew:{x:a,y:0},rotate:s}}},{key:"toString",value:function(){return null===this.s&&(this.s="matrix("+this.m.map(st).join(" ")+")"),this.s}}]),t}(),lt=/\.0+$/;function st(t){return Number.isInteger(t)?t:t.toFixed(14).replace(lt,"")}function ft(t,n,e){return t+(n-t)*e}function ct(t,n,e){var r=arguments.length>3&&void 0!==arguments[3]&&arguments[3],i={x:ft(t.x,n.x,e),y:ft(t.y,n.y,e)};return r&&(i.a=ht(t,n)),i}function ht(t,n){return Math.atan2(n.y-t.y,n.x-t.x)}Object.freeze({M:2,L:2,Z:0,H:1,V:1,C:6,Q:4,T:2,S:4,A:7});var vt={},dt=null;function yt(n){var e=function(){if(dt)return dt;if("object"!==("undefined"==typeof document?"undefined":t(document)))return{};var n=document.createElementNS("http://www.w3.org/2000/svg","svg");return n.style.position="absolute",n.style.opacity="0.01",n.style.zIndex="-9999",n.style.left="-9999px",n.style.width="1px",n.style.height="1px",dt={svg:n}}().svg;if(!e)return function(t){return null};var r=document.createElementNS(e.namespaceURI,"path");r.setAttributeNS(null,"d",n),r.setAttributeNS(null,"fill","none"),r.setAttributeNS(null,"stroke","none"),e.appendChild(r);var i=r.getTotalLength();return function(t){var n=r.getPointAtLength(i*t);return{x:n.x,y:n.y}}}function gt(t){return vt[t]?vt[t]:vt[t]=yt(t)}function pt(t,n,e,r){if(!t||!r)return!1;var i=["M",t.x,t.y];if(n&&e&&(i.push("C"),i.push(n.x),i.push(n.y),i.push(e.x),i.push(e.y)),n?!e:e){var u=n||e;i.push("Q"),i.push(u.x),i.push(u.y)}return n||e||i.push("L"),i.push(r.x),i.push(r.y),i.join(" ")}function mt(t,n,e,r){var i=arguments.length>4&&void 0!==arguments[4]?arguments[4]:1,u=pt(t,n,e,r),o=gt(u);try{return o(i)}catch(t){return null}}function bt(t,n,e,r){var i=1-r;return i*i*t+2*i*r*n+r*r*e}function wt(t,n,e,r){return 2*(1-r)*(n-t)+2*r*(e-n)}function xt(t,n,e,r){var i=arguments.length>4&&void 0!==arguments[4]&&arguments[4],u=mt(t,n,null,e,r);return u||(u={x:bt(t.x,n.x,e.x,r),y:bt(t.y,n.y,e.y,r)}),i&&(u.a=At(t,n,e,r)),u}function At(t,n,e,r){return Math.atan2(wt(t.y,n.y,e.y,r),wt(t.x,n.x,e.x,r))}function kt(t,n,e,r,i){var u=i*i;return i*u*(r-t+3*(n-e))+3*u*(t+e-2*n)+3*i*(n-t)+t}function _t(t,n,e,r,i){var u=1-i;return 3*(u*u*(n-t)+2*u*i*(e-n)+i*i*(r-e))}function St(t,n,e,r,i){var u=arguments.length>5&&void 0!==arguments[5]&&arguments[5],o=mt(t,n,e,r,i);return o||(o={x:kt(t.x,n.x,e.x,r.x,i),y:kt(t.y,n.y,e.y,r.y,i)}),u&&(o.a=Mt(t,n,e,r,i)),o}function Mt(t,n,e,r,i){return Math.atan2(_t(t.y,n.y,e.y,r.y,i),_t(t.x,n.x,e.x,r.x,i))}function Ot(t,n,e){var r=arguments.length>3&&void 0!==arguments[3]&&arguments[3];if(Bt(n)){if(It(e))return xt(n,e.start,e,t,r)}else if(Bt(e)){if(n.end)return xt(n,n.end,e,t,r)}else{if(n.end)return e.start?St(n,n.end,e.start,e,t,r):xt(n,n.end,e,t,r);if(e.start)return xt(n,e.start,e,t,r)}return ct(n,e,t,r)}function Et(t,n,e){var r=Ot(t,n,e,!0);return r.a=function(t){var n=arguments.length>1&&void 0!==arguments[1]&&arguments[1];return n?t+Math.PI:t}(r.a)/p,r}function Bt(t){return!t.type||"corner"===t.type}function It(t){return null!=t.start&&!Bt(t)}var jt=new at;var Pt={f:function(t){return t?t.join(" "):""},i:function(n,e,r){if(0===n)return e;if(1===n)return r;var i=e.length;if(i!==r.length)return m(n,e,r);for(var u,o=new Array(i),a=0;a<i;a++){if((u=t(e[a]))!==t(r[a]))return m(n,e,r);if("number"===u)o[a]=b(n,e[a],r[a]);else{if(e[a]!==r[a])return m(n,e,r);o[a]=e[a]}}return o}},Tt={f:null,i:M,u:function(t,n){return function(e){var r=n(e);t.setAttribute("x1",G(r[0])),t.setAttribute("y1",G(r[1])),t.setAttribute("x2",G(r[2])),t.setAttribute("y2",G(r[3]))}}},Ft={f:G,i:b},Rt={f:G,i:function(t,n,e){var r=b(t,n,e);return r<=0?0:r>=1?1:r}},Ct={f:function(t){var n=arguments.length>1&&void 0!==arguments[1]?arguments[1]:" ";return t&&t.length>0&&(t=t.map((function(t){return Math.floor(1e4*t)/1e4}))),H(t,n)},i:function(t,n,e){var r,i,u,o=n.length,a=e.length;if(o!==a)if(0===o)n=O(o=a,0);else if(0===a)a=o,e=O(o,0);else{var l=(u=(r=o)*(i=a)/function(t,n){for(var e;n;)e=n,n=t%n,t=e;return t||1}(r,i))<0?-u:u;n=E(n,Math.floor(l/o)),e=E(e,Math.floor(l/a)),o=a=l}for(var s=[],f=0;f<o;f++)s.push(g(w(t,n[f],e[f]),6));return s}};function Nt(t,n,e,r,i,u,o,a){return n=function(t,n,e){for(var r,i,u,o=t.length-1,a={},l=0;l<=o;l++)(r=t[l]).e&&(r.e=n(r.e)),r.v&&"g"===(i=r.v).t&&i.r&&(u=e.getElementById(i.r))&&(a[i.r]=u.querySelectorAll("stop"));return a}(t,r,a),function(r){var i,u=e(r,t,qt);return u?"c"===u.t?X(u.v):"g"===u.t?(n[u.r]&&function(t,n){for(var e=0,r=t.length;e<r;e++)t[e].setAttribute("stop-color",X(n[e]))}(n[u.r],u.v),(i=u.r)?"url(#"+i+")":"none"):"none":"none"}}function qt(t,n,e){if(0===t)return n;if(1===t)return e;if(n&&e){var r=n.t;if(r===e.t)switch(n.t){case"c":return{t:r,v:_(t,n.v,e.v)};case"g":if(n.r===e.r)return{t:r,v:S(t,n.v,e.v),r:n.r}}}return m(t,n,e)}var Vt={blur:A,brightness:w,contrast:w,"drop-shadow":function(t,n,e){return 0===t?n:1===t?e:{blur:A(t,n.blur,e.blur),offset:x(t,n.offset,e.offset),color:_(t,n.color,e.color)}},grayscale:w,"hue-rotate":b,invert:w,opacity:w,saturate:w,sepia:w};function Lt(t,n,e){if(0===t)return n;if(1===t)return e;var r=n.length;if(r!==e.length)return m(t,n,e);for(var i,u=[],o=0;o<r;o++){if(n[o].type!==e[o].type)return n;if(!(i=Vt[n[o].type]))return m(t,n,e);u.push({type:n.type,value:i(t,n[o].value,e[o].value)})}return u}var zt={blur:function(t){return t?function(n){t.setAttribute("stdDeviation",Q(n))}:null},brightness:function(t,n,e){return(t=Ut(e,n))?function(n){n=G(n),t.map((function(t){return t.setAttribute("slope",n)}))}:null},contrast:function(t,n,e){return(t=Ut(e,n))?function(n){var e=G((1-n)/2);n=G(n),t.map((function(t){t.setAttribute("slope",n),t.setAttribute("intercept",e)}))}:null},"drop-shadow":function(t,n,e){var r=e.getElementById(n+"-blur");if(!r)return null;var i=e.getElementById(n+"-offset");if(!i)return null;var u=e.getElementById(n+"-flood");return u?function(t){r.setAttribute("stdDeviation",Q(t.blur)),i.setAttribute("dx",G(t.offset.x)),i.setAttribute("dy",G(t.offset.y)),u.setAttribute("flood-color",X(t.color))}:null},grayscale:function(t){return t?function(n){t.setAttribute("values",H(function(t){return[.2126+.7874*(t=1-t),.7152-.7152*t,.0722-.0722*t,0,0,.2126-.2126*t,.7152+.2848*t,.0722-.0722*t,0,0,.2126-.2126*t,.7152-.7152*t,.0722+.9278*t,0,0,0,0,0,1,0]}(n)))}:null},"hue-rotate":function(t){return t?function(n){return t.setAttribute("values",G(n))}:null},invert:function(t,n,e){return(t=Ut(e,n))?function(n){n=G(n)+" "+G(1-n),t.map((function(t){return t.setAttribute("tableValues",n)}))}:null},opacity:function(t,n,e){return(t=e.getElementById(n+"-A"))?function(n){return t.setAttribute("tableValues","0 "+G(n))}:null},saturate:function(t){return t?function(n){return t.setAttribute("values",G(n))}:null},sepia:function(t){return t?function(n){return t.setAttribute("values",H(function(t){return[.393+.607*(t=1-t),.769-.769*t,.189-.189*t,0,0,.349-.349*t,.686+.314*t,.168-.168*t,0,0,.272-.272*t,.534-.534*t,.131+.869*t,0,0,0,0,0,1,0]}(n)))}:null}};var Dt=["R","G","B"];function Ut(t,n){var e=Dt.map((function(e){return t.getElementById(n+"-"+e)||null}));return-1!==e.indexOf(null)?null:e}var Wt={fill:Nt,"fill-opacity":Rt,stroke:Nt,"stroke-opacity":Rt,"stroke-width":Ft,"stroke-dashoffset":{f:G,i:b},"stroke-dasharray":Ct,opacity:Rt,transform:function(n,e,r,i){if(!(n=function(n,e){if(!n||"object"!==t(n))return null;var r=!1;for(var i in n)n.hasOwnProperty(i)&&(n[i]&&n[i].length?(n[i].forEach((function(t){t.e&&(t.e=e(t.e))})),r=!0):delete n[i]);return r?n:null}(n,i)))return null;var u=function(t,i,u){var o=arguments.length>3&&void 0!==arguments[3]?arguments[3]:null;return n[t]?r(i,n[t],u):e&&e[t]?e[t]:o};return e&&e.a&&n.o?function(t){var e=r(t,n.o,Et);return jt.recomposeSelf(e,u("r",t,b,0)+e.a,u("k",t,x),u("s",t,x),u("t",t,x)).toString()}:function(t){return jt.recomposeSelf(u("o",t,Ot,null),u("r",t,b,0),u("k",t,x),u("s",t,x),u("t",t,x)).toString()}},"#filter":function(t,n,e,r,i,u,o,a){if(!n.items||!t||!t.length)return null;var l=function(t,n){var e=(t=t.map((function(t){return t&&zt[t[0]]?(n.getElementById(t[1]),zt[t[0]](n.getElementById(t[1]),t[1],n)):null}))).length;return function(n){for(var r=0;r<e;r++)t[r]&&t[r](n[r].value)}}(n.items,a);return l?(t=function(t,n){return t.map((function(t){return t.e=n(t.e),t}))}(t,r),function(n){l(e(n,t,Lt))}):null},"#line":Tt,points:{f:H,i:M},d:Pt,r:Ft,"#size":Z,"#radius":$,_:function(t,n){if(Array.isArray(t))for(var e=0;e<t.length;e++)this[t[e]]=n;else this[t]=n}};return function(t){!function(t,n){if("function"!=typeof n&&null!==n)throw new TypeError("Super expression must either be null or a function");t.prototype=Object.create(n&&n.prototype,{constructor:{value:t,writable:!0,configurable:!0}}),n&&u(t,n)}(o,t);var e=a(o);function o(){return n(this,o),e.apply(this,arguments)}return r(o,null,[{key:"build",value:function(t){var n=l(i(o),"build",this).call(this,t,Wt),e=n.el,r=n.options,u=n.player;return function(t,n,e){if("click"===e.start){return void n.addEventListener("click",(function(){switch(e.click){case"freeze":return!t._running&&t.reachedToEnd()&&(t.offset=0),t._running?t.pause():t.play();case"restart":return t.offset>0?t.restart():t.play();case"reverse":var n=!t._rollingBack&&t._running,r=t.reachedToEnd();return n||r&&1===t.fill?(t.pause(),r&&(t.offset=t.duration-1),t._rollback()):r?t.restart():t.play();case"none":default:return!t._running&&t.offset?t.restart():t.play()}}))}if("hover"===e.start)return n.addEventListener("mouseenter",(function(){return t.reachedToEnd()?t.restart():t.play()})),void n.addEventListener("mouseleave",(function(){switch(e.hover){case"freeze":return t.pause();case"reset":return t.stop();case"reverse":return t.pause(),t._rollback();case"none":default:return}}));if("scroll"===e.start)return void new W(n,e.scroll||25,(function(n){n?t.reachedToEnd()?t.restart():t.play():t.pause()}));t.play()}(u,e,r),u}}]),o}(D)}));
__SVGATOR_PLAYER__.build({"root":"eOI1bj7Pku41","animations":[{"duration":3000,"direction":1,"iterations":0,"fill":1,"alternate":false,"speed":1,"elements":{"eOI1bj7Pku417":{"transform":{"data":{"t":{"x":-587.5470650865067,"y":-482.5078568554874}},"keys":{"o":[{"t":0,"v":{"x":567.55,"y":482.5078568554874,"type":"corner"}},{"t":400,"v":{"x":587.55,"y":482.5078568554874,"type":"corner"}}]}},"opacity":[{"t":0,"v":0},{"t":1300,"v":1}]},"eOI1bj7Pku424":{"transform":{"data":{"t":{"x":-589.7619279950084,"y":-803.5193750591926}},"keys":{"o":[{"t":400,"v":{"x":569.76,"y":803.5193750591926,"type":"corner"}},{"t":900,"v":{"x":589.76,"y":803.5193750591926,"type":"corner"}}]}},"opacity":[{"t":400,"v":0},{"t":1800,"v":1}]},"eOI1bj7Pku431":{"transform":{"data":{"t":{"x":-1397.395632800292,"y":-493.1210911079944}},"keys":{"o":[{"t":900,"v":{"x":1377.4,"y":493.1210911079944,"type":"corner"}},{"t":1500,"v":{"x":1397.4,"y":493.1210911079944,"type":"corner"}}]}},"opacity":[{"t":900,"v":0},{"t":2300,"v":1}]},"eOI1bj7Pku439":{"transform":{"data":{"t":{"x":-1399.612119111854,"y":-805.4904907623808}},"keys":{"o":[{"t":1500,"v":{"x":1379.61,"y":805.4904907623808,"type":"corner"}},{"t":2000,"v":{"x":1399.61,"y":805.4904907623808,"type":"corner"}}]}},"opacity":[{"t":1500,"v":0},{"t":2700,"v":1}]}}}],"options":{"start":"load","hover":"freeze","click":"freeze","scroll":25,"font":"embed","exportedIds":"unique","svgFormat":"animated","title":"animlaptop"},"animationSettings":{"duration":3000,"direction":1,"iterations":0,"fill":1,"alternate":false,"speed":1}})]]></script></svg>