<svg id="e3MzCsN6U2Q1" xmlns="http://www.w3.org/2000/svg" xmlns:xlink="http://www.w3.org/1999/xlink" viewBox="0 0 640 480" shape-rendering="geometricPrecision" text-rendering="geometricPrecision"><style><![CDATA[#e3MzCsN6U2Q17_to {animation: e3MzCsN6U2Q17_to__to 3000ms linear infinite normal forwards}@keyframes e3MzCsN6U2Q17_to__to { 0% {transform: translate(567.550000px,482.507857px)} 13.333333% {transform: translate(587.550000px,482.507857px)} 100% {transform: translate(587.550000px,482.507857px)}} #e3MzCsN6U2Q17 {animation: e3MzCsN6U2Q17_c_o 3000ms linear infinite normal forwards}@keyframes e3MzCsN6U2Q17_c_o { 0% {opacity: 0} 43.333333% {opacity: 1} 100% {opacity: 1}} #e3MzCsN6U2Q24_to {animation: e3MzCsN6U2Q24_to__to 3000ms linear infinite normal forwards}@keyframes e3MzCsN6U2Q24_to__to { 0% {transform: translate(569.760000px,803.519375px)} 13.333333% {transform: translate(569.760000px,803.519375px)} 30% {transform: translate(589.760000px,803.519375px)} 100% {transform: translate(589.760000px,803.519375px)}} #e3MzCsN6U2Q24 {animation: e3MzCsN6U2Q24_c_o 3000ms linear infinite normal forwards}@keyframes e3MzCsN6U2Q24_c_o { 0% {opacity: 0} 13.333333% {opacity: 0} 60% {opacity: 1} 100% {opacity: 1}} #e3MzCsN6U2Q31_to {animation: e3MzCsN6U2Q31_to__to 3000ms linear infinite normal forwards}@keyframes e3MzCsN6U2Q31_to__to { 0% {transform: translate(1377.400000px,493.121091px)} 30% {transform: translate(1377.400000px,493.121091px)} 50% {transform: translate(1397.400000px,493.121091px)} 100% {transform: translate(1397.400000px,493.121091px)}} #e3MzCsN6U2Q31 {animation: e3MzCsN6U2Q31_c_o 3000ms linear infinite normal forwards}@keyframes e3MzCsN6U2Q31_c_o { 0% {opacity: 0} 30% {opacity: 0} 76.666667% {opacity: 1} 100% {opacity: 1}} #e3MzCsN6U2Q39_to {animation: e3MzCsN6U2Q39_to__to 3000ms linear infinite normal forwards}@keyframes e3MzCsN6U2Q39_to__to { 0% {transform: translate(1379.610000px,805.490491px)} 50% {transform: translate(1379.610000px,805.490491px)} 66.666667% {transform: translate(1399.610000px,805.490491px)} 100% {transform: translate(1399.610000px,805.490491px)}} #e3MzCsN6U2Q39 {animation: e3MzCsN6U2Q39_c_o 3000ms linear infinite normal forwards}@keyframes e3MzCsN6U2Q39_c_o { 0% {opacity: 0} 50% {opacity: 0} 90% {opacity: 1} 100% {opacity: 1}}]]></style><g id="e3MzCsN6U2Q2" transform="matrix(0.45116452774090 0 0 0.45116452774090 79.36463606709378 90.07125886293974)"><path id="e3MzCsN6U2Q3" d="M1138,643.730000L1138,123.080000C1137.981445,105.801143,1131.099645,89.237354,1118.868520,77.032485C1106.637396,64.827615,1090.058857,57.981425,1072.780000,58L290.120000,58C272.839411,57.978771,256.258303,64.823788,244.025015,77.028946C231.791727,89.234103,224.908554,105.799408,224.890000,123.080000L224.890000,643.730000Z" transform="matrix(1 0 0 1 -149.27000000000001 -55)" fill="rgb(243,243,255)" stroke="none" stroke-width="1"/><path id="e3MzCsN6U2Q4" d="M1134.110000,649.710000L230.890000,649.710000C227.629904,649.698972,224.994465,647.050110,225,643.790000L225,125.680000C225,86.680000,256.590000,55,295.410000,55L1069.590000,55C1108.533743,55.115792,1140.033260,86.736099,1140,125.680000L1140,643.790000C1140.005535,647.050110,1137.370096,649.698972,1134.110000,649.710000ZM230.860000,637.710000L1134.410000,637.710000L1134.410000,120.390000C1134.349430,87.607125,1107.782894,61.049532,1075,61L290.290000,61C257.479809,61.038584,230.893063,87.629803,230.860000,120.440000Z" transform="matrix(1 0 0 1 -149.27000000000001 -55)" fill="rgb(1,32,58)" stroke="none" stroke-width="1"/><path id="e3MzCsN6U2Q5" d="M1111,133.860000C1111,99.490000,1092.220000,88,1058.290000,88L300.290000,88C266.340000,88,251,99.490000,251,133.860000L251,231.330000L1111,231.330000Z" transform="matrix(1 0 0 1 -149.27000000000001 -55)" fill="rgb(164,177,244)" stroke="none" stroke-width="1"/><path id="e3MzCsN6U2Q6" d="M1110,237.310000L255.310000,237.310000C251.996292,237.310000,249.310000,234.623708,249.310000,231.310000L249.310000,135.680000C249.310000,99.940000,265.740000,84.680000,304.240000,84.680000L1057.550000,84.680000C1082.600000,84.680000,1115.910000,89.960000,1115.910000,135.680000L1115.910000,231.330000C1115.899464,234.601088,1113.270737,237.260950,1110,237.310000ZM255,231L1110,231L1110,133.450000C1110,102.900000,1096.800000,91,1062.910000,91L298.620000,91C266,91,255,101.710000,255,133.450000Z" transform="matrix(1 0 0 1 -149.27000000000001 -55)" fill="rgb(1,32,58)" stroke="none" stroke-width="1"/><rect id="e3MzCsN6U2Q7" width="854.660000" height="412.400000" rx="0" ry="0" transform="matrix(1 0 0 1 107.07000000254789 176.34000001046772)" fill="rgb(243,243,255)" stroke="none" stroke-width="1"/><path id="e3MzCsN6U2Q8" d="M1110,649.710000L255.310000,649.710000C251.996292,649.710000,249.310000,647.023708,249.310000,643.710000L249.310000,231.330000C249.310000,228.016292,251.996292,225.330000,255.310000,225.330000L1110,225.330000C1113.313708,225.330000,1116,228.016292,1116,231.330000L1116,643.730000C1115.988980,647.035895,1113.305914,649.710018,1110,649.710000ZM255,644L1110,644L1110,231L255,231Z" transform="matrix(1 0 0 1 -149.27000000000001 -55)" fill="rgb(1,32,58)" stroke="none" stroke-width="1"/><path id="e3MzCsN6U2Q9" d="" transform="matrix(1 0 0 1 -149.27000000000001 -55)" fill="rgb(243,243,255)" stroke="none" stroke-width="1"/><path id="e3MzCsN6U2Q10" d="M224.890000,713.660000L1140.380000,713.660000C1140.380000,713.660000,1210.030000,713.660000,1210.030000,643.740000L155.240000,643.740000C155.240000,713.660000,224.890000,713.660000,224.890000,713.660000Z" transform="matrix(1 0 0 1 -149.27000000000001 -55)" fill="rgb(243,243,255)" stroke="none" stroke-width="1"/><path id="e3MzCsN6U2Q11" d="M1140.380000,719.630000L224.890000,719.630000C224.140000,719.630000,149.270000,718.760000,149.270000,643.740000C149.270000,640.426292,151.956292,637.740000,155.270000,637.740000L1210,637.740000C1213.313708,637.740000,1216,640.426292,1216,643.740000C1216,718.760000,1141.130000,719.630000,1140.380000,719.630000ZM155,644C158.760000,713.180000,216.650000,714,219.190000,714L1144.810000,714C1147.340000,714,1205.220000,712.920000,1209,644Z" transform="matrix(1 0 0 1 -149.27000000000001 -55)" fill="rgb(1,32,58)" stroke="none" stroke-width="1"/><path id="e3MzCsN6U2Q12" d="M359.550000,162.170000C359.550000,172.663410,351.043410,181.170000,340.550000,181.170000C330.056590,181.170000,321.550000,172.663410,321.550000,162.170000C321.550000,151.676590,330.056590,143.170000,340.550000,143.170000C351.043410,143.170000,359.550000,151.676590,359.550000,162.170000Z" transform="matrix(1 0 0 1 -149.27000000000001 -55)" fill="rgb(1,32,58)" stroke="none" stroke-width="1"/><path id="e3MzCsN6U2Q13" d="M426.800000,162.170000C426.800000,172.663410,418.293410,181.170000,407.800000,181.170000C397.306590,181.170000,388.800000,172.663410,388.800000,162.170000C388.800000,151.676590,397.306590,143.170000,407.800000,143.170000C418.293410,143.170000,426.800000,151.676590,426.800000,162.170000Z" transform="matrix(1 0 0 1 -149.27000000000001 -55)" fill="rgb(73,90,191)" stroke="none" stroke-width="1"/><path id="e3MzCsN6U2Q14" d="M494,162.170000C494,172.663410,485.493410,181.170000,475,181.170000C464.506590,181.170000,456,172.663410,456,162.170000C456,151.676590,464.506590,143.170000,475,143.170000C485.493410,143.170000,494,151.676590,494,162.170000Z" transform="matrix(1 0 0 1 -149.27000000000001 -55)" fill="rgb(243,243,255)" stroke="none" stroke-width="1"/><path id="e3MzCsN6U2Q15" d="M306.300000,678.460000L243.850000,678.460000C240.550000,678.460000,237.850000,677.040000,237.850000,675.300000C237.850000,673.560000,240.520000,672.140000,243.850000,672.140000L306.300000,672.140000C309.600000,672.140000,312.300000,673.550000,312.300000,675.300000C312.300000,677.050000,309.600000,678.460000,306.300000,678.460000Z" transform="matrix(1 0 0 1 -149.27000000000001 -55)" fill="rgb(1,32,58)" stroke="none" stroke-width="1"/><path id="e3MzCsN6U2Q16" d="M1109.610000,678.460000L398.610000,678.460000C395.310000,678.460000,392.610000,677.010000,392.610000,675.230000C392.610000,673.450000,395.280000,672,398.610000,672L1109.660000,672C1112.960000,672,1115.660000,673.440000,1115.660000,675.230000C1115.660000,677.020000,1112.910000,678.460000,1109.610000,678.460000Z" transform="matrix(1 0 0 1 -149.27000000000001 -55)" fill="rgb(1,32,58)" stroke="none" stroke-width="1"/><g id="e3MzCsN6U2Q17_to" transform="translate(567.550000,482.507857)"><g id="e3MzCsN6U2Q17" transform="translate(-587.547065,-482.507857)" opacity="0"><path id="e3MzCsN6U2Q18" d="M610.060000,341.420000L500.920000,341.420000C497.252829,341.420000,494.280000,338.447171,494.280000,334.780000C494.280000,331.112829,497.252829,328.140000,500.920000,328.140000L610.060000,328.140000C612.432244,328.140000,614.624287,329.405577,615.810409,331.460000C616.996531,333.514423,616.996531,336.045577,615.810409,338.100000C614.624287,340.154423,612.432244,341.420000,610.060000,341.420000Z" transform="matrix(1 0 0 1 -149.27000000000001 -55)" fill="rgb(110,117,244)" stroke="none" stroke-width="1"/><path id="e3MzCsN6U2Q19" d="M552.650000,373.280000L500.920000,373.280000C497.252829,373.280000,494.280000,370.307171,494.280000,366.640000C494.280000,362.972829,497.252829,360,500.920000,360L552.650000,360C556.317171,360,559.290000,362.972829,559.290000,366.640000C559.290000,370.307171,556.317171,373.280000,552.650000,373.280000Z" transform="matrix(1 0 0 1 -149.27000000000001 -55)" fill="rgb(1,32,58)" stroke="none" stroke-width="1"/><path id="e3MzCsN6U2Q20" d="M532.930000,402.450000L500.930000,402.450000C497.360306,402.311495,494.537827,399.377380,494.537827,395.805000C494.537827,392.232620,497.360306,389.298505,500.930000,389.160000L532.930000,389.160000C536.499694,389.298505,539.322173,392.232620,539.322173,395.805000C539.322173,399.377380,536.499694,402.311495,532.930000,402.450000Z" transform="matrix(1 0 0 1 -149.27000000000001 -55)" fill="rgb(73,90,191)" stroke="none" stroke-width="1"/><path id="e3MzCsN6U2Q21" d="M610.060000,373.280000L584.740000,373.280000C581.072829,373.280000,578.100000,370.307171,578.100000,366.640000C578.100000,362.972829,581.072829,360,584.740000,360L610.060000,360C612.432244,360,614.624287,361.265577,615.810409,363.320000C616.996531,365.374423,616.996531,367.905577,615.810409,369.960000C614.624287,372.014423,612.432244,373.280000,610.060000,373.280000Z" transform="matrix(1 0 0 1 -149.27000000000001 -55)" fill="rgb(1,32,58)" stroke="none" stroke-width="1"/><path id="e3MzCsN6U2Q22" d="M467.910000,366.640000C467.882392,393.468990,446.115699,415.198389,419.286701,415.179989C392.457703,415.161588,370.720836,393.402353,370.730029,366.573350C370.739222,339.744348,392.490996,318.000014,419.320000,318C432.215537,317.999993,444.582177,323.126145,453.696008,332.249355C462.809840,341.372564,467.923270,353.744470,467.910000,366.640000Z" transform="matrix(1 0 0 1 -148.27000001715757 -58.82832008901177)" fill="rgb(1,32,58)" stroke="none" stroke-width="1"/><path id="e3MzCsN6U2Q23" d="M388.580000,393.280000C388.596530,396.534576,391.245400,399.161075,394.500000,399.150000L444.020000,398.910000C445.584784,398.902064,447.082323,398.272834,448.183166,397.160739C449.284009,396.048644,449.897977,394.544783,449.890000,392.980000L442,341.140000L434.590000,341.140000C434.590000,340.930000,434.590000,340.720000,434.590000,340.510000C434.701403,334.845525,431.732953,329.565931,426.835330,326.717778C421.937707,323.869626,415.880906,323.900696,411.012761,326.798946C406.144616,329.697195,403.230489,335.006966,403.400000,340.670000C403.400000,340.880000,403.400000,341.080000,403.400000,341.300000L395.200000,341.300000ZM406.860000,341.280000C406.860000,341.070000,406.860000,340.860000,406.860000,340.650000C406.826863,333.950786,412.230786,328.493137,418.930000,328.460000C425.629214,328.426863,431.086863,333.830786,431.120000,340.530000C431.120000,340.740000,431.120000,340.950000,431.120000,341.160000Z" transform="matrix(1 0 0 1 -148.22999999745213 -55)" fill="rgb(255,168,29)" stroke="none" stroke-width="1"/></g></g><g id="e3MzCsN6U2Q24_to" transform="translate(569.760000,803.519375)"><g id="e3MzCsN6U2Q24" transform="translate(-589.761928,-803.519375)" opacity="0"><path id="e3MzCsN6U2Q25" d="M611.060000,473.910000L501.920000,473.910000C498.252829,473.910000,495.280000,470.937171,495.280000,467.270000C495.280000,463.602829,498.252829,460.630000,501.920000,460.630000L611.060000,460.630000C613.432244,460.630000,615.624287,461.895577,616.810409,463.950000C617.996531,466.004423,617.996531,468.535577,616.810409,470.590000C615.624287,472.644423,613.432244,473.910000,611.060000,473.910000Z" transform="matrix(1 0 0 1 -149.27000000000001 -55)" fill="rgb(73,90,191)" stroke="none" stroke-width="1"/><path id="e3MzCsN6U2Q26" d="M553.650000,505.770000L501.920000,505.770000C498.252829,505.770000,495.280000,502.797171,495.280000,499.130000C495.280000,495.462829,498.252829,492.490000,501.920000,492.490000L553.650000,492.490000C557.317171,492.490000,560.290000,495.462829,560.290000,499.130000C560.290000,502.797171,557.317171,505.770000,553.650000,505.770000Z" transform="matrix(1 0 0 1 -149.27000000000001 -55)" fill="rgb(1,32,58)" stroke="none" stroke-width="1"/><path id="e3MzCsN6U2Q27" d="M533.930000,534.940000L501.930000,534.940000C499.557756,534.940000,497.365713,533.674423,496.179591,531.620000C494.993469,529.565577,494.993469,527.034423,496.179591,524.980000C497.365713,522.925577,499.557756,521.660000,501.930000,521.660000L533.930000,521.660000C537.597171,521.660000,540.570000,524.632829,540.570000,528.300000C540.570000,531.967171,537.597171,534.940000,533.930000,534.940000Z" transform="matrix(1 0 0 1 -149.27000000000001 -55)" fill="rgb(110,117,244)" stroke="none" stroke-width="1"/><path id="e3MzCsN6U2Q28" d="M611.060000,505.770000L585.740000,505.770000C582.072829,505.770000,579.100000,502.797171,579.100000,499.130000C579.100000,495.462829,582.072829,492.490000,585.740000,492.490000L611.060000,492.490000C613.432244,492.490000,615.624287,493.755577,616.810409,495.810000C617.996531,497.864423,617.996531,500.395577,616.810409,502.450000C615.624287,504.504423,613.432244,505.770000,611.060000,505.770000Z" transform="matrix(1 0 0 1 -149.27000000000001 -55)" fill="rgb(173,173,234)" stroke="none" stroke-width="1"/><path id="e3MzCsN6U2Q29" d="M468.910000,507.580000C468.914045,527.233730,457.078036,544.954476,438.921518,552.478436C420.765000,560.002395,399.863935,555.847710,385.965219,541.951854C372.066502,528.055998,367.907515,507.155789,375.427738,488.997722C382.947960,470.839656,400.666270,459,420.320000,459C447.151611,458.999999,468.904478,480.748389,468.910000,507.580000Z" transform="matrix(1 0 0 1 -149.27000000000001 -55)" fill="rgb(1,32,58)" stroke="none" stroke-width="1"/><path id="e3MzCsN6U2Q30" d="M389.580000,535.530000C389.596530,538.784576,392.245400,541.411075,395.500000,541.400000L445.020000,541.160000C446.584784,541.152064,448.082323,540.522834,449.183166,539.410739C450.284009,538.298644,450.897977,536.794783,450.890000,535.230000L443,483.390000L435.590000,483.390000C435.590000,483.180000,435.590000,482.970000,435.590000,482.770000C435.703587,477.105330,432.736916,471.824407,427.840061,468.974460C422.943206,466.124512,416.886109,466.153642,412.016892,469.050557C407.147674,471.947472,404.231934,477.256684,404.400000,482.920000C404.400000,483.130000,404.400000,483.340000,404.400000,483.550000L396.200000,483.550000ZM407.860000,483.530000C407.860000,483.320000,407.860000,483.110000,407.860000,482.900000C407.826863,476.200786,413.230786,470.743137,419.930000,470.710000C426.629214,470.676863,432.086863,476.080786,432.120000,482.780000C432.120000,482.990000,432.120000,483.200000,432.120000,483.410000Z" transform="matrix(1 0 0 1 -149.27000000000001 -55)" fill="rgb(255,168,29)" stroke="none" stroke-width="1"/></g></g><g id="e3MzCsN6U2Q31_to" transform="translate(1377.400000,493.121091)"><g id="e3MzCsN6U2Q31" transform="translate(-1397.395633,-493.121091)" opacity="0"><g id="e3MzCsN6U2Q32"><path id="e3MzCsN6U2Q33" d="M975.440000,342.330000L866.310000,342.330000C862.642829,342.330000,859.670000,339.357171,859.670000,335.690000C859.670000,332.022829,862.642829,329.050000,866.310000,329.050000L975.440000,329.050000C979.107171,329.050000,982.080000,332.022829,982.080000,335.690000C982.080000,339.357171,979.107171,342.330000,975.440000,342.330000Z" transform="matrix(1 0 0 1 -149.27000000000001 -54.98999896994872)" fill="rgb(110,117,244)" stroke="none" stroke-width="1"/><path id="e3MzCsN6U2Q34" d="M918,374.190000L866.310000,374.190000C862.642829,374.190000,859.670000,371.217171,859.670000,367.550000C859.670000,363.882829,862.642829,360.910000,866.310000,360.910000L918,360.910000C921.667171,360.910000,924.640000,363.882829,924.640000,367.550000C924.640000,371.217171,921.667171,374.190000,918,374.190000Z" transform="matrix(1 0 0 1 -149.27000000000001 -54.98999896994872)" fill="rgb(1,32,58)" stroke="none" stroke-width="1"/><path id="e3MzCsN6U2Q35" d="M898.310000,403.350000L866.310000,403.350000C863.937756,403.350000,861.745713,402.084423,860.559591,400.030000C859.373469,397.975577,859.373469,395.444423,860.559591,393.390000C861.745713,391.335577,863.937756,390.070000,866.310000,390.070000L898.310000,390.070000C900.682244,390.070000,902.874287,391.335577,904.060409,393.390000C905.246531,395.444423,905.246531,397.975577,904.060409,400.030000C902.874287,402.084423,900.682244,403.350000,898.310000,403.350000Z" transform="matrix(1 0 0 1 -149.27000000000001 -55)" fill="rgb(73,90,191)" stroke="none" stroke-width="1"/><path id="e3MzCsN6U2Q36" d="M975.440000,374.190000L950.120000,374.190000C946.452829,374.190000,943.480000,371.217171,943.480000,367.550000C943.480000,363.882829,946.452829,360.910000,950.120000,360.910000L975.440000,360.910000C979.107171,360.910000,982.080000,363.882829,982.080000,367.550000C982.080000,371.217171,979.107171,374.190000,975.440000,374.190000Z" transform="matrix(1 0 0 1 -149.27000000000001 -55)" fill="rgb(1,32,58)" stroke="none" stroke-width="1"/><path id="e3MzCsN6U2Q37" d="M833.300000,367.550000C833.294477,394.391038,811.531039,416.145521,784.690001,416.139998C757.848963,416.134475,736.094479,394.371037,736.100002,367.529999C736.105525,340.688961,757.868962,318.934478,784.710000,318.940000C811.548751,318.951042,833.300002,340.711247,833.300000,367.550000Z" transform="matrix(1 0 0 1 -149.27000000000001 -54.98999896994872)" fill="rgb(1,32,58)" stroke="none" stroke-width="1"/><path id="e3MzCsN6U2Q38" d="M754,394.190000C754.016530,397.444576,756.665400,400.071075,759.920000,400.060000L809.430000,399.810000C812.684576,399.793470,815.311075,397.144600,815.300000,393.890000L807.350000,342L799.940000,342C799.940000,341.790000,799.940000,341.580000,799.940000,341.370000C800.051403,335.705525,797.082953,330.425931,792.185330,327.577778C787.287707,324.729626,781.230906,324.760696,776.362761,327.658946C771.494616,330.557195,768.580489,335.866966,768.750000,341.530000C768.750000,341.730000,768.750000,341.940000,768.750000,342.150000L760.560000,342.150000ZM772.280000,342.190000C772.280000,341.990000,772.280000,341.780000,772.280000,341.570000C772.246863,334.870786,777.650786,329.413137,784.350000,329.380000C791.049214,329.346863,796.506863,334.750786,796.540000,341.450000C796.540000,341.660000,796.540000,341.870000,796.540000,342.080000Z" transform="matrix(1 0 0 1 -149.27000000000001 -54.98999896994872)" fill="rgb(255,168,29)" stroke="none" stroke-width="1"/></g></g></g><g id="e3MzCsN6U2Q39_to" transform="translate(1379.610000,805.490491)"><g id="e3MzCsN6U2Q39" transform="translate(-1399.612119,-805.490491)" opacity="0"><path id="e3MzCsN6U2Q40" d="M976.440000,474.820000L867.310000,474.820000C863.642829,474.820000,860.670000,471.847171,860.670000,468.180000C860.670000,464.512829,863.642829,461.540000,867.310000,461.540000L976.440000,461.540000C980.107171,461.540000,983.080000,464.512829,983.080000,468.180000C983.080000,471.847171,980.107171,474.820000,976.440000,474.820000Z" transform="matrix(1 0 0 1 -149.27000000000001 -55)" fill="rgb(73,90,191)" stroke="none" stroke-width="1"/><path id="e3MzCsN6U2Q41" d="M919,506.680000L867.310000,506.680000C864.937756,506.680000,862.745713,505.414423,861.559591,503.360000C860.373469,501.305577,860.373469,498.774423,861.559591,496.720000C862.745713,494.665577,864.937756,493.400000,867.310000,493.400000L919,493.400000C922.667171,493.400000,925.640000,496.372829,925.640000,500.040000C925.640000,503.707171,922.667171,506.680000,919,506.680000Z" transform="matrix(1 0 0 1 -149.27000000000001 -55)" fill="rgb(73,90,191)" stroke="none" stroke-width="1"/><path id="e3MzCsN6U2Q42" d="M899.310000,535.840000L867.310000,535.840000C864.937756,535.840000,862.745713,534.574423,861.559591,532.520000C860.373469,530.465577,860.373469,527.934423,861.559591,525.880000C862.745713,523.825577,864.937756,522.560000,867.310000,522.560000L899.310000,522.560000C901.682244,522.560000,903.874287,523.825577,905.060409,525.880000C906.246531,527.934423,906.246531,530.465577,905.060409,532.520000C903.874287,534.574423,901.682244,535.840000,899.310000,535.840000Z" transform="matrix(1 0 0 1 -149.27000000000001 -55)" fill="rgb(110,117,244)" stroke="none" stroke-width="1"/><path id="e3MzCsN6U2Q43" d="M976.440000,506.680000L951.120000,506.680000C947.452829,506.680000,944.480000,503.707171,944.480000,500.040000C944.480000,496.372829,947.452829,493.400000,951.120000,493.400000L976.440000,493.400000C980.107171,493.400000,983.080000,496.372829,983.080000,500.040000C983.080000,503.707171,980.107171,506.680000,976.440000,506.680000Z" transform="matrix(1 0 0 1 -149.27000000000001 -55)" fill="rgb(173,173,234)" stroke="none" stroke-width="1"/><path id="e3MzCsN6U2Q44" d="M834.300000,508.490000C834.294477,535.331038,812.531039,557.085521,785.690001,557.079998C758.848963,557.074475,737.094479,535.311037,737.100002,508.469999C737.105525,481.628961,758.868962,459.874478,785.710000,459.880000C812.548751,459.891042,834.300002,481.651247,834.300000,508.490000Z" transform="matrix(1 0 0 1 -149.27000000000001 -55)" fill="rgb(1,32,58)" stroke="none" stroke-width="1"/><path id="e3MzCsN6U2Q45" d="M755,536.440000C755.016530,539.694576,757.665400,542.321075,760.920000,542.310000L810.430000,542.060000C811.994694,542.057375,813.493814,541.431216,814.595519,540.320126C815.697225,539.209037,816.310646,537.704660,816.300000,536.140000L808.380000,484.300000L800.970000,484.300000C800.970000,484.090000,800.970000,483.880000,800.970000,483.670000C801.081403,478.005525,798.112953,472.725931,793.215330,469.877778C788.317707,467.029626,782.260906,467.060696,777.392761,469.958946C772.524616,472.857195,769.610489,478.166966,769.780000,483.830000C769.780000,484.030000,769.780000,484.240000,769.780000,484.450000L761.590000,484.450000ZM773.280000,484.440000C773.280000,484.240000,773.280000,484.030000,773.280000,483.820000C773.246863,477.120786,778.650786,471.663137,785.350000,471.630000C792.049214,471.596863,797.506863,477.000786,797.540000,483.700000C797.540000,483.910000,797.540000,484.120000,797.540000,484.330000Z" transform="matrix(1 0 0 1 -149.27000000000001 -55)" fill="rgb(255,168,29)" stroke="none" stroke-width="1"/></g></g></g></svg>