<svg id="eNsCnaKJuIt1" xmlns="http://www.w3.org/2000/svg" xmlns:xlink="http://www.w3.org/1999/xlink" viewBox="0 0 849.610000 518.410000" shape-rendering="geometricPrecision" text-rendering="geometricPrecision"><style><![CDATA[#eNsCnaKJuIt17_to {animation: eNsCnaKJuIt17_to__to 10000ms linear infinite normal forwards}@keyframes eNsCnaKJuIt17_to__to { 0% {transform: translate(250.249984px,247.399986px)} 10% {transform: translate(270.249984px,247.399986px)} 100% {transform: translate(270.249984px,247.399986px)}} #eNsCnaKJuIt17 {animation: eNsCnaKJuIt17_c_o 10000ms linear infinite normal forwards}@keyframes eNsCnaKJuIt17_c_o { 0% {opacity: 0} 30% {opacity: 1} 70% {opacity: 1} 100% {opacity: 0}} #eNsCnaKJuIt25_to {animation: eNsCnaKJuIt25_to__to 10000ms linear infinite normal forwards}@keyframes eNsCnaKJuIt25_to__to { 0% {transform: translate(250.659989px,359.210571px)} 10% {transform: translate(250.659989px,359.210571px)} 20% {transform: translate(270.659989px,359.210571px)} 100% {transform: translate(270.659989px,359.210571px)}} #eNsCnaKJuIt25 {animation: eNsCnaKJuIt25_c_o 10000ms linear infinite normal forwards}@keyframes eNsCnaKJuIt25_c_o { 0% {opacity: 0} 10% {opacity: 0} 40% {opacity: 1} 70% {opacity: 1} 100% {opacity: 0}} #eNsCnaKJuIt32_to {animation: eNsCnaKJuIt32_to__to 10000ms linear infinite normal forwards}@keyframes eNsCnaKJuIt32_to__to { 0% {transform: translate(556.269982px,247.959984px)} 20% {transform: translate(556.269982px,247.959984px)} 30% {transform: translate(576.269982px,247.959984px)} 100% {transform: translate(576.269982px,247.959984px)}} #eNsCnaKJuIt32 {animation: eNsCnaKJuIt32_c_o 10000ms linear infinite normal forwards}@keyframes eNsCnaKJuIt32_c_o { 0% {opacity: 0} 20% {opacity: 0} 50% {opacity: 1} 70% {opacity: 1} 100% {opacity: 0}} #eNsCnaKJuIt39_to {animation: eNsCnaKJuIt39_to__to 10000ms linear infinite normal forwards}@keyframes eNsCnaKJuIt39_to__to { 0% {transform: translate(557.219998px,360.694870px)} 30% {transform: translate(557.219998px,360.694870px)} 40% {transform: translate(577.219998px,360.694870px)} 100% {transform: translate(577.219998px,360.694870px)}} #eNsCnaKJuIt39 {animation: eNsCnaKJuIt39_c_o 10000ms linear infinite normal forwards}@keyframes eNsCnaKJuIt39_c_o { 0% {opacity: 0} 30% {opacity: 0} 60% {opacity: 1} 70% {opacity: 1} 100% {opacity: 0}}]]></style><path id="eNsCnaKJuIt2" d="M1035.320000,600.620000L1035.160000,185.940000C1035.138803,172.171788,1029.647693,158.976203,1019.895221,149.257490C1010.142749,139.538776,996.928203,134.093455,983.160000,134.120000L359.800000,134.360000C331.140322,134.343425,307.892084,157.560326,307.870000,186.220000L308.030000,600.900000Z" transform="matrix(1 0 0 1 -247.83000000000001 -131.74000000000001)" fill="rgb(247,248,252)" stroke="none" stroke-width="1"/><path id="eNsCnaKJuIt3" d="M1032.220000,605.380000L312.840000,605.660000C311.593482,605.657351,310.399070,605.159631,309.519524,604.276334C308.639978,603.393037,308.147345,602.196518,308.150000,600.950000L308,188.290000C307.983253,157.288580,333.048791,132.115714,364.050000,132L980.650000,131.770000C1011.667520,131.847209,1036.766642,157.022388,1036.750000,188.040000L1036.910000,600.700000ZM312.820000,596.140000L1032.450000,595.860000L1032.300000,183.800000C1032.266984,157.685758,1011.114216,136.519574,985,136.470000L360,136.710000C333.870180,136.754105,312.706504,157.940148,312.690000,184.070000Z" transform="matrix(1 0 0 1 -247.83000000000001 -131.74000000000001)" fill="rgb(9,52,101)" stroke="none" stroke-width="1"/><path id="eNsCnaKJuIt4" d="M1013.660000,194.530000C1013.660000,167.160000,998.660000,158.010000,971.660000,158.020000L367.930000,158.260000C340.930000,158.260000,328.690000,167.420000,328.700000,194.800000L328.700000,272.430000L1013.700000,272.170000Z" transform="matrix(1 0 0 1 -247.83000000000001 -131.74000000000001)" fill="rgb(9,52,101)" stroke="none" stroke-width="1"/><path id="eNsCnaKJuIt5" d="M1012.870000,276.920000L332.160000,277.190000C329.533406,277.184499,327.405501,275.056594,327.400000,272.430000L327.400000,196.240000C327.400000,167.780000,340.470000,155.640000,371.140000,155.620000L971.140000,155.390000C991.090000,155.390000,1017.620000,159.580000,1017.630000,195.980000L1017.630000,272.160000C1017.630000,274.788875,1015.498875,276.920000,1012.870000,276.920000ZM331.920000,272.160000L1012.920000,271.900000L1012.920000,194.210000C1012.920000,169.880000,1002.390000,160.400000,975.410000,160.410000L366.670000,160.650000C340.670000,160.650000,331.940000,169.190000,331.950000,194.470000Z" transform="matrix(1 0 0 1 -247.83000000000001 -131.74000000000001)" fill="rgb(9,52,101)" stroke="none" stroke-width="1"/><rect id="eNsCnaKJuIt6" width="680.700000" height="328.460000" rx="0" ry="0" transform="matrix(1 0 0 1 83.41499999999996 140.70000000000005)" fill="rgb(247,248,252)" stroke="none" stroke-width="1"/><path id="eNsCnaKJuIt7" d="M1013,605.390000L332.300000,605.650000C329.671125,605.650000,327.540000,603.518875,327.540000,600.890000L327.410000,272.430000C327.410000,269.801125,329.541125,267.670000,332.170000,267.670000L1012.870000,267.410000C1015.494975,267.409994,1017.624485,269.535031,1017.630000,272.160000L1017.760000,600.630000C1017.760000,603.258875,1015.628875,605.390000,1013,605.390000ZM332,601.100000L1013,600.840000L1012.870000,271.900000L331.870000,272.160000Z" transform="matrix(1 0 0 1 -247.83000000000001 -131.74000000000001)" fill="rgb(9,52,101)" stroke="none" stroke-width="1"/><path id="eNsCnaKJuIt8" d="" transform="matrix(1 0 0 1 -247.83000000000001 -131.74000000000001)" fill="rgb(243,243,255)" stroke="none" stroke-width="1"/><path id="eNsCnaKJuIt9" d="M1037.230000,649.860000L308.080000,650.140000C307.480000,650.140000,247.850000,649.600000,247.830000,600.140000C247.830000,597.960000,249.960000,596.200000,252.590000,596.200000L1092.690000,595.880000C1095.310000,595.880000,1097.440000,597.640000,1097.440000,599.810000C1097.460000,649.270000,1037.830000,649.860000,1037.230000,649.860000ZM252.400000,600.280000C272.506283,611.869179,290.606506,626.633018,306,644C737.360000,641.180000,1021.520000,640.090000,1039,642C1045.013785,642.672715,1051.097739,642.334718,1057,641C1062.350000,639.790000,1073.420000,636.920000,1082.440000,627C1084.900000,624.280000,1091.660000,615.890000,1091.870000,600Z" transform="matrix(1 0 0 1 -247.83000000000001 -131.74000000000001)" fill="rgb(9,52,101)" stroke="none" stroke-width="1"/><path id="eNsCnaKJuIt10" d="M308.080000,646.200000L1037.230000,645.920000C1042.101328,645.862563,1046.952431,645.282577,1051.700000,644.190000C1059.080000,642.490000,1077.300000,638.280000,1086.880000,622.370000C1090.891207,615.535198,1092.904168,607.712022,1092.690000,599.790000L252.590000,600.110000C252.610000,646.230000,308.080000,646.200000,308.080000,646.200000Z" transform="matrix(1 0 0 1 -247.83000000000001 -131.74000000000001)" fill="rgb(247,248,252)" stroke="none" stroke-width="1"/><path id="eNsCnaKJuIt11" d="" transform="matrix(1 0 0 1 -247.83000000000001 -131.74000000000001)" fill="rgb(1,32,58)" stroke="none" stroke-width="1"/><path id="eNsCnaKJuIt12" d="M415.270000,217.280000C415.270000,225.630545,408.500545,232.400000,400.150000,232.400000C391.799455,232.400000,385.030000,225.630545,385.030000,217.280000C385.030000,208.929455,391.799455,202.160000,400.150000,202.160000C408.498260,202.165516,415.264484,208.931740,415.270000,217.280000Z" transform="matrix(1 0 0 1 -247.83000000000001 -131.74000000000001)" fill="rgb(206,23,23)" stroke="none" stroke-width="1"/><path id="eNsCnaKJuIt13" d="M468.830000,217.280000C468.830000,225.630545,462.060545,232.400000,453.710000,232.400000C445.359455,232.400000,438.590000,225.630545,438.590000,217.280000C438.590000,208.929455,445.359455,202.160000,453.710000,202.160000C462.058260,202.165516,468.824484,208.931740,468.830000,217.280000Z" transform="matrix(1 0 0 1 -247.83000000000001 -131.74000000000001)" fill="rgb(232,156,53)" stroke="none" stroke-width="1"/><path id="eNsCnaKJuIt14" d="M522.390000,217.280000C522.390000,225.630545,515.620545,232.400000,507.270000,232.400000C498.919455,232.400000,492.150000,225.630545,492.150000,217.280000C492.150000,208.929455,498.919455,202.160000,507.270000,202.160000C515.618260,202.165516,522.384484,208.931740,522.390000,217.280000Z" transform="matrix(1 0 0 1 -247.83000000000001 -131.74000000000001)" fill="rgb(13,181,0)" stroke="none" stroke-width="1"/><path id="eNsCnaKJuIt15" d="M372.910000,625.530000L323.170000,625.530000C320.550000,625.530000,318.420000,624.400000,318.420000,623.010000C318.420000,621.620000,320.550000,620.500000,323.170000,620.500000L372.910000,620.500000C375.540000,620.500000,377.670000,621.620000,377.670000,623.010000C377.670000,624.400000,375.540000,625.530000,372.910000,625.530000Z" transform="matrix(1 0 0 1 -247.83000000000001 -131.74000000000001)" fill="rgb(9,52,101)" stroke="none" stroke-width="1"/><path id="eNsCnaKJuIt16" d="M1012.720000,625.280000L446.390000,625.500000C443.760000,625.500000,441.630000,624.350000,441.630000,622.930000C441.630000,621.510000,443.760000,620.360000,446.390000,620.360000L1012.720000,620.140000C1015.340000,620.140000,1017.470000,621.290000,1017.470000,622.710000C1017.470000,624.130000,1015.350000,625.280000,1012.720000,625.280000Z" transform="matrix(1 0 0 1 -247.83000000000001 -131.74000000000001)" fill="rgb(9,52,101)" stroke="none" stroke-width="1"/><g id="eNsCnaKJuIt17_to" transform="translate(250.249984,247.399986)"><g id="eNsCnaKJuIt17" transform="translate(-270.249977,-247.399986)" opacity="0"><path id="eNsCnaKJuIt18" d="M610.740000,359L523.820000,359C520.898414,359,518.530000,356.631586,518.530000,353.710000C518.530000,350.788414,520.898414,348.420000,523.820000,348.420000L610.750000,348.420000C613.671586,348.420000,616.040000,350.788414,616.040000,353.710000C616.040000,356.631586,613.671586,359,610.750000,359Z" transform="matrix(1 0 0 1 -247.83000000000001 -131.74000000000001)" fill="rgb(9,52,101)" stroke="none" stroke-width="1"/><path id="eNsCnaKJuIt19" d="M565,384.390000L523.810000,384.390000C520.888414,384.390000,518.520000,382.021586,518.520000,379.100000C518.520000,376.178414,520.888414,373.810000,523.810000,373.810000L565,373.810000C566.942989,373.725462,568.775681,374.713880,569.772404,376.383880C570.769126,378.053879,570.769126,380.136121,569.772404,381.806120C568.775681,383.476120,566.942989,384.464538,565,384.380000Z" transform="matrix(1 0 0 1 -247.83000000000001 -131.74000000000001)" fill="rgb(1,32,58)" stroke="none" stroke-width="1"/><path id="eNsCnaKJuIt20" d="M549.330000,407.630000L523.840000,407.630000C520.918414,407.630000,518.550000,405.261586,518.550000,402.340000C518.550000,399.418414,520.918414,397.050000,523.840000,397.050000L549.330000,397.050000C552.251586,397.050000,554.620000,399.418414,554.620000,402.340000C554.620000,405.261586,552.251586,407.630000,549.330000,407.630000Z" transform="matrix(1 0 0 1 -247.83000000000001 -131.74000000000001)" fill="rgb(9,52,101)" stroke="none" stroke-width="1"/><path id="eNsCnaKJuIt21" d="M610.750000,384.380000L590.580000,384.380000C587.750519,384.256892,585.519946,381.927158,585.519946,379.095000C585.519946,376.262842,587.750519,373.933108,590.580000,373.810000L610.750000,373.810000C613.671586,373.810000,616.040000,376.178414,616.040000,379.100000C616.040000,382.021586,613.671586,384.390000,610.750000,384.390000Z" transform="matrix(1 0 0 1 -247.83000000000001 -131.74000000000001)" fill="rgb(1,32,58)" stroke="none" stroke-width="1"/><path id="eNsCnaKJuIt22" d="M497.540000,379.130000C497.545522,400.508942,480.218942,417.844475,458.840001,417.849997C437.461059,417.855520,420.125526,400.528941,420.120003,379.149999C420.114479,357.771058,437.441058,340.435524,458.820000,340.430000C480.196657,340.429997,497.528958,357.753345,497.540000,379.130000Z" transform="matrix(1 0 0 1 -247.83000000000001 -131.74000000000001)" fill="rgb(9,52,101)" stroke="none" stroke-width="1"/><path id="eNsCnaKJuIt23" d="M440,396.580000C440.011018,398.696866,441.733113,400.405541,443.850000,400.400000L476.090000,400.230000C477.108436,400.224709,478.083056,399.815057,478.799448,399.091163C479.515839,398.367270,479.915318,397.388435,479.910000,396.370000L474.750000,362.620000L469.920000,362.620000C469.920000,362.480000,469.920000,362.350000,469.920000,362.210000C469.720688,356.724634,465.200580,352.389343,459.711674,352.419071C454.222768,352.448799,449.749884,356.832796,449.610000,362.320000C449.610000,362.450000,449.610000,362.590000,449.610000,362.730000L444.280000,362.730000ZM451.890000,362.730000C451.890000,362.600000,451.890000,362.460000,451.890000,362.330000C451.865147,357.966950,455.381951,354.409853,459.745000,354.385000C464.108050,354.360147,467.665147,357.876951,467.690000,362.240000C467.690000,362.380000,467.690000,362.520000,467.690000,362.650000Z" transform="matrix(1 0 0 1 -247.83000000000001 -131.74000000000001)" fill="rgb(232,156,53)" stroke="none" stroke-width="1"/></g></g><g id="eNsCnaKJuIt24"><g id="eNsCnaKJuIt25_to" transform="translate(250.659989,359.210571)"><g id="eNsCnaKJuIt25" transform="translate(-270.660545,-359.210571)" opacity="0"><path id="eNsCnaKJuIt26" d="M611.150551,464.090551L524.220551,464.090551C521.298965,464.090551,518.930551,461.722137,518.930551,458.800551C518.930551,455.878965,521.298965,453.510551,524.220551,453.510551L611.140551,453.510551C613.970032,453.633659,616.200605,455.963393,616.200605,458.795551C616.200605,461.627709,613.970032,463.957443,611.140551,464.080551Z" transform="matrix(1 0 0 1 -247.83000000000001 -131.74000000000001)" fill="rgb(9,52,101)" stroke="none" stroke-width="1"/><path id="eNsCnaKJuIt27" d="M565.430551,489.490551L524.230551,489.490551C521.401070,489.367443,519.170497,487.037709,519.170497,484.205551C519.170497,481.373393,521.401070,479.043659,524.230551,478.920551L565.430551,478.920551C568.352137,478.920551,570.720551,481.288965,570.720551,484.210551C570.720551,487.132137,568.352137,489.500551,565.430551,489.500551Z" transform="matrix(1 0 0 1 -247.83000000000001 -131.74000000000001)" fill="rgb(1,32,58)" stroke="none" stroke-width="1"/><path id="eNsCnaKJuIt28" d="M550.160000,513.150000L524.670000,513.150000C522.780065,513.150000,521.033693,512.141732,520.088725,510.505000C519.143758,508.868268,519.143758,506.851732,520.088725,505.215000C521.033693,503.578268,522.780065,502.570000,524.670000,502.570000L550.160000,502.570000C552.102989,502.485462,553.935681,503.473880,554.932404,505.143880C555.929126,506.813879,555.929126,508.896121,554.932404,510.566120C553.935681,512.236120,552.102989,513.224538,550.160000,513.140000Z" transform="matrix(1 0 0 1 -247.83000000000001 -131.74000000000001)" fill="rgb(9,52,101)" stroke="none" stroke-width="1"/><path id="eNsCnaKJuIt29" d="M611.160551,489.900000L590.990551,489.900000C589.100616,489.900000,587.354244,488.891732,586.409276,487.255000C585.464309,485.618268,585.464309,483.601732,586.409276,481.965000C587.354244,480.328268,589.100616,479.320000,590.990551,479.320000L611.150551,479.320000C614.072137,479.320000,616.440551,481.688414,616.440551,484.610000C616.440551,487.531586,614.072137,489.900000,611.150551,489.900000Z" transform="matrix(1 0 0 1 -247.83000000000001 -131.74000000000001)" fill="rgb(9,52,101)" stroke="none" stroke-width="1"/><path id="eNsCnaKJuIt30" d="M497.940551,490.960551C497.935028,512.331366,480.608034,529.652391,459.237219,529.650550C437.866403,529.648709,420.542393,512.324699,420.540552,490.953883C420.538711,469.583068,437.859736,452.256074,459.230551,452.250551C480.609494,452.250551,497.940551,469.581608,497.940551,490.960551Z" transform="matrix(1 0 0 1 -247.83000000000001 -131.74000000000001)" fill="rgb(9,52,101)" stroke="none" stroke-width="1"/><path id="eNsCnaKJuIt31" d="M438.930551,509.490551C438.941569,511.607417,440.663664,513.316092,442.780551,513.310551L475.020551,513.130551C476.038987,513.125260,477.013607,512.715608,477.729999,511.991714C478.446390,511.267821,478.845869,510.288986,478.840551,509.270551L473.670551,475.570551L468.850551,475.570551C468.850551,475.430551,468.850551,475.290551,468.850551,475.160551C468.944963,471.457050,467.016054,467.995735,463.816773,466.127732C460.617492,464.259729,456.655052,464.281189,453.476192,466.183737C450.297333,468.086284,448.406029,471.568290,448.540551,475.270551C448.540551,475.400551,448.540551,475.540551,448.540551,475.670551L443.200551,475.670551ZM450.820551,475.640551C450.820551,475.510551,450.820551,475.370551,450.820551,475.230551C450.798460,470.867502,454.317502,467.312642,458.680551,467.290551C463.043600,467.268460,466.598460,470.787502,466.620551,475.150551C466.620551,475.290551,466.620551,475.420551,466.620551,475.560551Z" transform="matrix(1 0 0 1 -247.83000000000001 -131.74000000000001)" fill="rgb(232,156,53)" stroke="none" stroke-width="1"/></g></g></g><g id="eNsCnaKJuIt32_to" transform="translate(556.269982,247.959984)"><g id="eNsCnaKJuIt32" transform="translate(-576.269989,-247.959984)" opacity="0"><path id="eNsCnaKJuIt33" d="M916.760000,359.610000L829.830000,359.610000C826.908414,359.610000,824.540000,357.241586,824.540000,354.320000C824.540000,351.398414,826.908414,349.030000,829.830000,349.030000L916.750000,349.030000C919.671586,349.030000,922.040000,351.398414,922.040000,354.320000C922.040000,357.241586,919.671586,359.610000,916.750000,359.610000Z" transform="matrix(1 0 0 1 -247.83000000000001 -131.74000000000001)" fill="rgb(9,52,101)" stroke="none" stroke-width="1"/><path id="eNsCnaKJuIt34" d="M871,385L829.800000,385C826.878414,385,824.510000,382.631586,824.510000,379.710000C824.510000,376.788414,826.878414,374.420000,829.800000,374.420000L871,374.420000C872.889935,374.420000,874.636307,375.428268,875.581275,377.065000C876.526242,378.701732,876.526242,380.718268,875.581275,382.355000C874.636307,383.991732,872.889935,385,871,385Z" transform="matrix(1 0 0 1 -247.83000000000001 -131.74000000000001)" fill="rgb(1,32,58)" stroke="none" stroke-width="1"/><path id="eNsCnaKJuIt35" d="M855.340000,408.240000L829.850000,408.240000C826.928414,408.240000,824.560000,405.871586,824.560000,402.950000C824.560000,400.028414,826.928414,397.660000,829.850000,397.660000L855.340000,397.660000C858.261586,397.660000,860.630000,400.028414,860.630000,402.950000C860.630000,405.871586,858.261586,408.240000,855.340000,408.240000Z" transform="matrix(1 0 0 1 -247.83000000000001 -131.74000000000001)" fill="rgb(9,52,101)" stroke="none" stroke-width="1"/><path id="eNsCnaKJuIt36" d="M916.770000,385L896.600000,385C894.657011,385.084538,892.824319,384.096120,891.827596,382.426120C890.830874,380.756121,890.830874,378.673879,891.827596,377.003880C892.824319,375.333880,894.657011,374.345462,896.600000,374.430000L916.760000,374.430000C919.681586,374.430000,922.050000,376.798414,922.050000,379.720000C922.050000,382.641586,919.681586,385.010000,916.760000,385.010000Z" transform="matrix(1 0 0 1 -247.83000000000001 -131.74000000000001)" fill="rgb(1,32,58)" stroke="none" stroke-width="1"/><path id="eNsCnaKJuIt37" d="M803.550000,379.740000C803.527914,401.105595,786.195628,418.411029,764.830024,418.399990C743.464421,418.388950,726.150027,401.065613,726.150021,379.700007C726.150014,358.334400,743.464396,341.011053,764.830000,341C775.103463,340.997343,784.956622,345.078653,792.219182,352.344964C799.481741,359.611274,803.557962,369.466540,803.550000,379.740000Z" transform="matrix(1 0 0 1 -247.83000000000001 -131.74000000000001)" fill="rgb(9,52,101)" stroke="none" stroke-width="1"/><path id="eNsCnaKJuIt38" d="M744.360000,396.920000C744.371018,399.036866,746.093113,400.745541,748.210000,400.740000L780.450000,400.560000C781.468436,400.554709,782.443056,400.145057,783.159448,399.421163C783.875839,398.697270,784.275318,397.718435,784.270000,396.700000L779.100000,363L774.280000,363C774.280000,362.860000,774.280000,362.720000,774.280000,362.590000C774.374412,358.886499,772.445503,355.425184,769.246222,353.557181C766.046941,351.689178,762.084501,351.710638,758.905641,353.613186C755.726782,355.515733,753.835478,358.997739,753.970000,362.700000C753.970000,362.830000,753.970000,362.970000,753.970000,363.100000L748.630000,363.100000ZM756.250000,363.070000C756.250000,362.940000,756.250000,362.800000,756.250000,362.660000C756.227909,358.296951,759.746951,354.742091,764.110000,354.720000C768.473049,354.697909,772.027909,358.216951,772.050000,362.580000C772.050000,362.720000,772.050000,362.850000,772.050000,362.990000Z" transform="matrix(1 0 0 1 -247.83000000000001 -131.74000000000001)" fill="rgb(232,156,53)" stroke="none" stroke-width="1"/></g></g><g id="eNsCnaKJuIt39_to" transform="translate(557.219998,360.694870)"><g id="eNsCnaKJuIt39" transform="translate(-577.219971,-360.694870)" opacity="0"><path id="eNsCnaKJuIt40" d="M917.590000,465.130000L830.670000,465.130000C828.780065,465.130000,827.033693,464.121732,826.088725,462.485000C825.143758,460.848268,825.143758,458.831732,826.088725,457.195000C827.033693,455.558268,828.780065,454.550000,830.670000,454.550000L917.590000,454.550000C919.532989,454.465462,921.365681,455.453880,922.362404,457.123880C923.359126,458.793879,923.359126,460.876121,922.362404,462.546120C921.365681,464.216120,919.532989,465.204538,917.590000,465.120000Z" transform="matrix(1 0 0 1 -247.83000000000001 -131.74000000000001)" fill="rgb(9,52,101)" stroke="none" stroke-width="1"/><path id="eNsCnaKJuIt41" d="M871.880000,490.530000L830.680000,490.530000C828.737011,490.614538,826.904319,489.626120,825.907596,487.956120C824.910874,486.286121,824.910874,484.203879,825.907596,482.533880C826.904319,480.863880,828.737011,479.875462,830.680000,479.960000L871.870000,479.960000C874.791586,479.960000,877.160000,482.328414,877.160000,485.250000C877.160000,488.171586,874.791586,490.540000,871.870000,490.540000Z" transform="matrix(1 0 0 1 -247.83000000000001 -131.74000000000001)" fill="rgb(9,52,101)" stroke="none" stroke-width="1"/><path id="eNsCnaKJuIt42" d="M856.180000,513.760000L830.690000,513.760000C828.747011,513.844538,826.914319,512.856120,825.917596,511.186120C824.920874,509.516121,824.920874,507.433879,825.917596,505.763880C826.914319,504.093880,828.747011,503.105462,830.690000,503.190000L856.190000,503.190000C859.019481,503.313108,861.250054,505.642842,861.250054,508.475000C861.250054,511.307158,859.019481,513.636892,856.190000,513.760000Z" transform="matrix(1 0 0 1 -247.83000000000001 -131.74000000000001)" fill="rgb(9,52,101)" stroke="none" stroke-width="1"/><path id="eNsCnaKJuIt43" d="M917.600000,490.510000L897.440000,490.510000C894.518414,490.510000,892.150000,488.141586,892.150000,485.220000C892.150000,482.298414,894.518414,479.930000,897.440000,479.930000L917.600000,479.930000C920.521586,479.930000,922.890000,482.298414,922.890000,485.220000C922.890000,488.141586,920.521586,490.510000,917.600000,490.510000Z" transform="matrix(1 0 0 1 -247.83000000000001 -131.74000000000001)" fill="rgb(9,52,101)" stroke="none" stroke-width="1"/><path id="eNsCnaKJuIt44" d="M804.390000,492.444885C804.384475,513.814398,787.059512,531.134881,765.689998,531.134880C744.320484,531.134878,726.995524,513.814392,726.990003,492.444879C726.984481,471.075366,744.300489,453.745929,765.670000,453.734885C775.938263,453.732232,785.786872,457.809425,793.048568,465.069245C800.310264,472.329066,804.390000,482.176622,804.390000,492.444885Z" transform="matrix(1 0 0 1 -247.83000000000001 -131.74000000000001)" fill="rgb(9,52,101)" stroke="none" stroke-width="1"/><path id="eNsCnaKJuIt45" d="M744.360000,510.364885C744.371018,512.481751,746.093113,514.190426,748.210000,514.184885L780.450000,514.004885C781.468436,513.999594,782.443056,513.589942,783.159448,512.866048C783.875839,512.142155,784.275318,511.163320,784.270000,510.144885L779.100000,476.444885L774.280000,476.444885C774.280000,476.304885,774.280000,476.164885,774.280000,476.034885C774.374412,472.331384,772.445503,468.870069,769.246222,467.002066C766.046941,465.134063,762.084501,465.155523,758.905641,467.058071C755.726782,468.960618,753.835478,472.442624,753.970000,476.144885C753.970000,476.274885,753.970000,476.414885,753.970000,476.544885L748.630000,476.544885ZM756.250000,476.514885C756.250000,476.384885,756.250000,476.244885,756.250000,476.104885C756.227909,471.741836,759.746951,468.186976,764.110000,468.164885C768.473049,468.142794,772.027909,471.661836,772.050000,476.024885C772.050000,476.164885,772.050000,476.294885,772.050000,476.434885Z" transform="matrix(1 0 0 1 -247.83000000000001 -131.74000000000001)" fill="rgb(232,156,53)" stroke="none" stroke-width="1"/></g></g></svg>