<svg id="e38YbFGn9J71" xmlns="http://www.w3.org/2000/svg" xmlns:xlink="http://www.w3.org/1999/xlink" viewBox="0 0 1341.530000 645.300000" shape-rendering="geometricPrecision" text-rendering="geometricPrecision"><style><![CDATA[#e38YbFGn9J710 {animation: e38YbFGn9J710_c_o 9000ms linear infinite normal forwards}@keyframes e38YbFGn9J710_c_o { 0% {opacity: 0} 44.444444% {opacity: 0} 55.555556% {opacity: 1} 72.222222% {opacity: 0} 100% {opacity: 0}} #e38YbFGn9J711 {animation: e38YbFGn9J711_c_o 9000ms linear infinite normal forwards}@keyframes e38YbFGn9J711_c_o { 0% {opacity: 0} 38.888889% {opacity: 0} 50% {opacity: 1} 72.222222% {opacity: 0} 100% {opacity: 0}} #e38YbFGn9J712 {animation: e38YbFGn9J712_c_o 9000ms linear infinite normal forwards}@keyframes e38YbFGn9J712_c_o { 0% {opacity: 0} 33.333333% {opacity: 0} 44.444444% {opacity: 1} 72.222222% {opacity: 0} 100% {opacity: 0}} #e38YbFGn9J713 {animation: e38YbFGn9J713_c_o 9000ms linear infinite normal forwards}@keyframes e38YbFGn9J713_c_o { 0% {opacity: 0} 22.222222% {opacity: 0} 33.333333% {opacity: 1} 72.222222% {opacity: 0} 100% {opacity: 0}} #e38YbFGn9J714 {animation: e38YbFGn9J714_c_o 9000ms linear infinite normal forwards}@keyframes e38YbFGn9J714_c_o { 0% {opacity: 0} 16.666667% {opacity: 0} 27.777778% {opacity: 1} 72.222222% {opacity: 0} 100% {opacity: 0}} #e38YbFGn9J715 {animation: e38YbFGn9J715_c_o 9000ms linear infinite normal forwards}@keyframes e38YbFGn9J715_c_o { 0% {opacity: 0} 27.777778% {opacity: 0} 38.888889% {opacity: 1} 72.222222% {opacity: 0} 100% {opacity: 0}} #e38YbFGn9J716 {animation: e38YbFGn9J716_c_o 9000ms linear infinite normal forwards}@keyframes e38YbFGn9J716_c_o { 0% {opacity: 0} 11.111111% {opacity: 1} 72.222222% {opacity: 0} 100% {opacity: 0}} #e38YbFGn9J718 {animation: e38YbFGn9J718_c_o 9000ms linear infinite normal forwards}@keyframes e38YbFGn9J718_c_o { 0% {opacity: 0} 5.555556% {opacity: 0} 16.666667% {opacity: 1} 72.222222% {opacity: 0} 100% {opacity: 0}} #e38YbFGn9J719 {animation: e38YbFGn9J719_c_o 9000ms linear infinite normal forwards}@keyframes e38YbFGn9J719_c_o { 0% {opacity: 0} 11.111111% {opacity: 0} 22.222222% {opacity: 1} 72.222222% {opacity: 0} 100% {opacity: 0}}]]></style><path id="e38YbFGn9J72" d="M235.760000,229.610000L43,623L765.880000,617.320000C786.420000,573.320000,805.420000,535.810000,821.210000,505.760000C845.780000,459,858.060000,435.670000,864,427.500000C871.840000,416.700000,889.400000,393.950000,901.150000,363.560000C902.730000,359.470000,903.480000,357.110000,905.760000,351.700000C918.340000,321.810000,927.390000,322.030000,934.540000,301.180000C939.200000,287.590000,937.950000,280.180000,946.540000,273.520000C949.540000,271.230000,953.900000,268.800000,954,264.860000C954,263.360000,953.470000,261.380000,945.440000,254.490000C936.270000,246.630000,933.160000,245.900000,928.360000,240.100000C924.860000,235.880000,925.800000,235.410000,923.590000,233.730000C917.650000,229.210000,909.650000,231.730000,894.380000,232.730000C883.850000,233.450000,870.990000,234.330000,855.740000,232.460000C843.300000,230.930000,844.910000,232.970000,835.020000,233.100000C815.880000,233.360000,808.560000,232.280000,790.730000,231.990000C776.550000,231.770000,768.590000,232.250000,757.730000,232.550000C716.530000,233.710000,711.330000,230.150000,667.260000,230.320000C622.310000,230.490000,613.810000,234.250000,586.260000,230.540000C577.516705,229.176678,568.702078,228.318587,559.860000,227.970000C538.070000,227.220000,535.320000,230.480000,513.710000,230.810000C490.870000,231.160000,487.940000,227.600000,463.710000,228.870000C452.490000,229.460000,451.890000,230.290000,440.180000,231.080000C423.844872,232.139227,407.448194,231.757754,391.180000,229.940000C372.770000,228.130000,332.230000,227,235.760000,229.610000Z" transform="matrix(1 0 0 1 -13.47000000000000 -63.73000000000000)" fill="rgb(247,248,252)" stroke="none" stroke-width="1"/><path id="e38YbFGn9J73" d="M1177.570000,256.290000C1175.661915,259.789288,1174.254835,263.539259,1173.390000,267.430000C1167.930000,292.330000,1187.390000,314.100000,1191,318C1195.870000,329.140000,1211.680000,365.220000,1229,403C1236.480000,419.330000,1242.270000,431.650000,1251,447C1255.670000,455.210000,1256.220000,455.550000,1259,461C1271.750000,486,1268.380000,494.690000,1277,500C1279.380000,501.470000,1288.920000,501.640000,1308,502C1308.520000,502,1314.580000,502.120000,1323,502C1346.910000,501.670000,1349.770000,500.080000,1351,498C1353.770000,493.330000,1349,486.090000,1347.390000,483.510000C1335,463.650000,1283.820000,351,1279,339C1278.490000,337.730000,1276,331.410000,1272,323C1269.560000,317.910000,1269.520000,318.260000,1268,315C1262.140000,302.410000,1263.710000,299.200000,1259,291C1255.450000,284.810000,1254.230000,286.060000,1250,279C1246.901592,273.679436,1244.546379,267.959634,1243,262C1239.850000,251.620000,1234,232.400000,1225,228C1209.680000,220.530000,1180.230000,253.290000,1177.570000,256.290000Z" transform="matrix(1 0 0 1 -13.47000000000000 -63.73000000000000)" fill="rgb(237,237,239)" stroke="none" stroke-width="1"/><path id="e38YbFGn9J74" d="M1071.360000,378.940000C1069.511740,382.466362,1068.107703,386.208222,1067.180000,390.080000C1060.870000,416.520000,1079.290000,440.190000,1083.900000,445.820000C1083.270000,454.330000,1081.680000,486.820000,1100,498C1106.540000,502,1112.740000,501,1135,501C1153.290000,501,1168.190000,501.520000,1178,502C1181.610000,502.170000,1186.230000,501.830000,1188,499C1190.400000,495.180000,1186.150000,489.090000,1182,482C1169.350000,460.430000,1174.630000,458.760000,1162,438C1159.310000,433.570000,1154.930000,426.860000,1149.200000,416C1147.070000,412,1145.980000,409.580000,1145.200000,408.200000C1137.430000,394.200000,1128.290000,378.680000,1111.010000,373.280000C1093.730000,367.880000,1077.570000,375.550000,1071.360000,378.940000Z" transform="matrix(1 0 0 1 -13.47000000000000 -63.73000000000000)" fill="rgb(237,237,239)" stroke="none" stroke-width="1"/><path id="e38YbFGn9J75" d="M939.080000,538.220000Q928.470000,530.560000,925,533Q916.540000,539,950.480000,605C955.533091,613.715849,960.048193,622.732694,964,632C971.100000,648.660000,972.600000,657.420000,981,662C983.720000,663.480000,985.740000,663.750000,998,664C1041.130000,664.870000,1042.780000,662.060000,1043,661C1043.190000,660.100000,1042.730000,658.630000,1039.460000,656.280000C1028.620000,631.450000,1020.460000,611.590000,1015,598C1013.060000,593.170000,1008.830000,582.580000,1002,569C991.160000,547.440000,985.550000,536.570000,975.860000,532.430000C962.710000,526.810000,947.680000,533.320000,939.080000,538.220000Z" transform="matrix(1 0 0 1 -13.47000000000000 -63.73000000000000)" fill="rgb(237,237,239)" stroke="none" stroke-width="1"/><path id="e38YbFGn9J76" d="M819.050000,577.120000Q805.550000,619.720000,792.050000,662.340000L868.050000,666.410000C882.360000,665.990000,885.650000,663.850000,886.050000,662C886.570000,659.560000,881.960000,658.090000,878.050000,651C876.300000,647.830000,876.230000,646.320000,874.050000,639C874.050000,639,872.680000,634.420000,869.050000,624C865.300000,613.260000,862.360000,610.740000,856.050000,598C846.050000,577.770000,847.120000,571.340000,841.050000,569C837.360000,567.590000,830.800000,567.530000,819.050000,577.120000Z" transform="matrix(1 0 0 1 -13.47000000000000 -63.73000000000000)" fill="rgb(237,237,239)" stroke="none" stroke-width="1"/><path id="e38YbFGn9J77" d="M75.260000,550.390000Q47.390000,606.120000,19.530000,661.860000C17.042263,670.759647,17.205606,680.191827,20,689C21.460000,693.460000,23.810000,700.590000,30,705C38.810000,711.280000,50.370000,708.460000,58,707C77,703.370000,96.700000,707.170000,116,706C120.450000,705.730000,146,705.490000,197,705C302,704,346.540000,704.710000,415.240000,700.870000C516.040000,695.230000,534.740000,687.420000,540.640000,673C550.640000,648.470000,539.250000,564.560000,542.640000,560.310000C543.697110,559.139098,544.244114,557.595252,544.160000,556.020000C544.046021,555.342538,543.786751,554.697775,543.400000,554.130000C522.940000,524.920000,405.480000,542,405.480000,542C340.570000,551.480000,239.940000,558,75.260000,550.390000Z" transform="matrix(1 0 0 1 -13.47000000000000 -63.73000000000000)" fill="rgb(247,248,252)" stroke="none" stroke-width="1"/><path id="e38YbFGn9J78" d="M520,69L282.450000,545.890000L1079.160000,553.360000C1101.360000,497.730000,1121.870000,450.170000,1138.900000,412.120000C1165.390000,352.950000,1178.640000,323.360000,1185,313C1193.410000,299.300000,1212.260000,270.450000,1225,232C1226.710000,226.830000,1227.540000,223.840000,1230,217C1243.620000,179.180000,1253.220000,179.370000,1261,153C1266.070000,135.820000,1264.810000,126.500000,1274,118C1277.160000,115.080000,1281.850000,112,1282,107C1282.060000,105.110000,1281.460000,102.620000,1273,94C1263.340000,84.160000,1260,83.280000,1255,76C1251.330000,70.700000,1252.330000,70.100000,1250,68C1243.730000,62.350000,1235.220000,65.550000,1219,67C1207.820000,68,1194.170000,69.220000,1178,67C1164.810000,65.190000,1166.500000,67.740000,1156,68C1135.680000,68.500000,1127.920000,67.200000,1109,67C1094,66.840000,1085.500000,67.520000,1074,68C1030.260000,69.830000,1024.770000,65.390000,978,66C930.280000,66.620000,921.230000,71.440000,892,67C882.745495,65.366214,873.390564,64.363900,864,64C840.880000,63.250000,837.940000,67.390000,815,68C790.750000,68.640000,787.680000,64.180000,762,66C750.080000,66.840000,749.440000,67.900000,737,69C719.679334,70.484327,702.250792,70.149163,685,68C665.430000,65.890000,622.410000,64.790000,520,69Z" transform="matrix(1 0 0 1 -13.47000000000000 -63.73000000000000)" fill="rgb(247,248,252)" stroke="none" stroke-width="1"/><path id="e38YbFGn9J79" d="M508,228Q396.840000,467.920000,285.660000,707.840000L780.290000,700.840000Q879.920000,486.300000,979.540000,271.720000C981.260000,267.500000,982.980000,261.260000,980.940000,255C973.570000,232.350000,921.760000,231.790000,797.010000,231.310000C738.200000,231.080000,708.790000,230.970000,693.010000,231C635.350000,231.110000,573.560000,230.260000,508,228Z" transform="matrix(1 0 0 1 -13.47000000000000 -63.73000000000000)" fill="rgb(247,248,252)" stroke="none" stroke-width="1"/><path id="e38YbFGn9J710" d="M580.090000,457Q555.090000,507,530,557L626.350000,556Q650.170000,506.510000,674,457Z" transform="matrix(1 0 0 1 -13.47000000000000 -63.73000000000000)" opacity="0" fill="rgb(232,156,53)" stroke="none" stroke-width="1"/><path id="e38YbFGn9J711" d="M674,454Q647.810000,507,621.630000,560L718,557L768,457Z" transform="matrix(1 0 0 1 -13.47000000000000 -63.73000000000000)" opacity="0" fill="rgb(232,156,53)" stroke="none" stroke-width="1"/><path id="e38YbFGn9J712" d="M765.200000,458L718,557L800,559L851,455Z" transform="matrix(1 0 0 1 -13.47000000000000 -63.73000000000000)" opacity="0" fill="rgb(232,156,53)" stroke="none" stroke-width="1"/><path id="e38YbFGn9J713" d="M733.470000,334.140000L675,453L767,454L824,336Z" transform="matrix(1 0 0 1 -11.97000000000000 -63.73000000000000)" opacity="0" fill="rgb(232,156,53)" stroke="none" stroke-width="1"/><path id="e38YbFGn9J714" d="M639,335L582,454L674,453L732,336Z" transform="matrix(1 0 0 1 -13.47000000000000 -63.73000000000000)" opacity="0" fill="rgb(232,156,53)" stroke="none" stroke-width="1"/><path id="e38YbFGn9J715" d="M823.670000,336.200000Q797.350000,394.610000,771,453L850,458Q878,397.510000,906,337Z" transform="matrix(1 0 0 1 -13.47000000000000 -63.73000000000000)" opacity="0" fill="rgb(232,156,53)" stroke="none" stroke-width="1"/><path id="e38YbFGn9J716" d="M874,226L825,335L903,337Q929,283.500000,955,230Z" transform="matrix(1 0 0 1 -13.47000000000000 -63.73000000000000)" opacity="0" fill="rgb(232,156,53)" stroke="none" stroke-width="1"/><path id="e38YbFGn9J717" d="M914,405C906.320000,425.690000,901.780000,435.700000,899,441C896.350000,446,891.650000,453.780000,891,458C890.830000,459.070000,890.700000,461.380000,889,463C888.090000,463.870000,887.160000,464.130000,887,465C886.760000,466.330000,888.610000,467.700000,889,468C891.880000,470.230000,894.070000,475.790000,898,485C903.570000,498,909.800000,510.810000,915,524C929.710000,561.330000,937.200000,580,944,583C966.630000,592.800000,996.370000,562.480000,997.250000,560.230000C997.288037,560.132589,997.318135,560.032262,997.340000,559.930000C997.580000,558.780000,997.020000,556.930000,993,553.930000C979.720000,522.270000,969.740000,496.930000,963.060000,479.630000C961.750000,476.240000,959.590000,470.630000,956.520000,463.360000C952.520000,453.850000,949.170000,446.920000,947.140000,442.660000C928.680000,404,925.450000,396.640000,921,397C919.240000,397.140000,916.710000,398.540000,914,405Z" transform="matrix(1 0 0 1 -13.47000000000000 -63.73000000000000)" fill="rgb(237,237,239)" stroke="none" stroke-width="1"/><path id="e38YbFGn9J718" d="M782,228Q757,281,732,334L825,335Q848.500000,283.510000,872,232Z" transform="matrix(1 0 0 1 -13.47000000000000 -63.73000000000000)" opacity="0" fill="rgb(232,156,53)" stroke="none" stroke-width="1"/><path id="e38YbFGn9J719" d="M690,228L639,335L733,337L780,230Z" transform="matrix(1 0 0 1 -13.47000000000000 -63.73000000000000)" opacity="0" fill="rgb(232,156,53)" stroke="none" stroke-width="1"/><path id="e38YbFGn9J720" d="M26.130000,706.720000L14.400000,673L14.090000,672.120000L13.470000,670.350000C13.656909,669.398283,14.205289,668.555999,15,668C15.766100,667.630633,16.663229,667.652968,17.410000,668.060000L30.410000,705.190000C30.560000,705.640000,29.740000,706.330000,28.560000,706.740000C27.380000,707.150000,26.280000,707.160000,26.130000,706.720000Z" transform="matrix(1 0 0 1 -13.47000000000000 -63.73000000000000)" fill="rgb(9,52,101)" stroke="none" stroke-width="1"/><path id="e38YbFGn9J721" d="M236.430000,231.210000L18.820000,672.160000C18.200947,672.344964,17.548406,672.389378,16.910000,672.290000C15.461030,671.945731,14.251235,670.953551,13.630000,669.600000L231.240000,228.650000C231.751775,227.184110,233.206219,226.264205,234.750000,226.430000C236.240000,226.800000,237.420000,229,236.430000,231.210000Z" transform="matrix(1 0 0 1 -13.47000000000000 -62.01167724999986)" fill="rgb(9,52,101)" stroke="none" stroke-width="1"/><path id="e38YbFGn9J722" d="M318.350000,237.130000L106.870000,665.650000C104.340000,670.770000,101.130000,674.350000,99.690000,673.650000C98.250000,672.950000,99.150000,668.210000,101.690000,663.090000L313.150000,234.570000C315.680000,229.440000,318.900000,225.860000,320.330000,226.570000C321.760000,227.280000,320.870000,232,318.350000,237.130000Z" transform="matrix(1 0 0 1 -13.47000000000000 -63.73000000000000)" fill="rgb(9,52,101)" stroke="none" stroke-width="1"/><path id="e38YbFGn9J723" d="M752,674L17.680000,674C16.465153,674.244181,15.222967,673.731595,14.533847,672.701745C13.844728,671.671895,13.844728,670.328105,14.533847,669.298255C15.222967,668.268405,16.465153,667.755819,17.680000,668L752,668" transform="matrix(1 0 0 1 -13.47000000000000 -63.73000000000000)" fill="rgb(9,52,101)" stroke="none" stroke-width="1"/><path id="e38YbFGn9J724" d="M775,709L29.670000,709C28.455153,709.244181,27.212967,708.731595,26.523847,707.701745C25.834728,706.671895,25.834728,705.328105,26.523847,704.298255C27.212967,703.268405,28.455153,702.755819,29.670000,703L775,703" transform="matrix(1 0 0 1 -13.47000000000000 -63.73000000000000)" fill="rgb(9,52,101)" stroke="none" stroke-width="1"/><path id="e38YbFGn9J725" d="M689,238L482.570000,664.780000C480.110000,669.880000,476.940000,673.450000,475.500000,672.780000C474.060000,672.110000,474.900000,667.380000,477.360000,662.280000L683.780000,235.510000C686.250000,230.400000,689.420000,226.830000,690.850000,227.510000C692.280000,228.190000,691.460000,232.920000,689,238Z" transform="matrix(1 0 0 1 -13.47000000000000 -63.73000000000000)" fill="rgb(9,52,101)" stroke="none" stroke-width="1"/><path id="e38YbFGn9J726" d="M976.540000,266.250000L951.270000,230.070000C950.970000,229.640000,951.910000,228.460000,953.360000,227.450000C954.810000,226.440000,956.240000,225.960000,956.540000,226.390000L981.810000,262.570000C982.110000,263.010000,981.170000,264.180000,979.720000,265.200000C978.270000,266.220000,976.840000,266.680000,976.540000,266.250000Z" transform="matrix(1 0 0 1 -13.47000000000000 -63.73000000000000)" fill="rgb(9,52,101)" stroke="none" stroke-width="1"/><path id="e38YbFGn9J727" d="M774.460000,708L750.250000,673.350000C749.970000,672.930000,750.660000,671.950000,751.810000,671.140000C752.960000,670.330000,754.120000,670.030000,754.410000,670.440000L778.610000,705.100000C778.900000,705.510000,778.200000,706.500000,777.060000,707.300000C775.920000,708.100000,774.740000,708.380000,774.460000,708Z" transform="matrix(1 0 0 1 -13.47000000000000 -63.73000000000000)" fill="rgb(9,52,101)" stroke="none" stroke-width="1"/><path id="e38YbFGn9J728" d="M891.350000,466.340000L980.720000,660.910000C981.790000,663.240000,981.520000,665.640000,980.120000,666.280000C978.720000,666.920000,976.730000,665.560000,975.660000,663.280000L886.290000,468.660000C885.220000,466.340000,885.490000,463.930000,886.880000,463.290000C888.270000,462.650000,890.280000,464,891.350000,466.340000Z" transform="matrix(1 0 0 1 -13.47000000000000 -63.73000000000000)" fill="rgb(9,52,101)" stroke="none" stroke-width="1"/><path id="e38YbFGn9J729" d="M843.640000,566.680000L887.640000,662.450000C888.012463,663.709102,887.402987,665.050561,886.209628,665.598250C885.016270,666.145939,883.601787,665.733370,882.890000,664.630000L838.890000,568.860000C838.517537,567.600898,839.127013,566.259439,840.320372,565.711750C841.513730,565.164061,842.928213,565.576630,843.640000,566.680000Z" transform="matrix(1 0 0 1 -13.47000000000000 -63.73000000000000)" fill="rgb(9,52,101)" stroke="none" stroke-width="1"/><path id="e38YbFGn9J730" d="M1072.230000,554.360000L1050.760000,514.250000C1050.500000,513.770000,1051.290000,512.840000,1052.520000,512.180000C1053.750000,511.520000,1054.960000,511.380000,1055.220000,511.860000L1076.690000,552C1076.950000,552.480000,1076.160000,553.400000,1074.930000,554.060000C1073.700000,554.720000,1072.490000,554.840000,1072.230000,554.360000Z" transform="matrix(1 0 0 1 -13.47000000000000 -63.73000000000000)" fill="rgb(9,52,101)" stroke="none" stroke-width="1"/><path id="e38YbFGn9J731" d="M926.260000,555.500000L845.740000,555.500000C844.740000,555.500000,844,554.050000,844,552.250000C844,550.450000,844.780000,549,845.740000,549L926.260000,549C927.260000,549,928,550.460000,928,552.250000C928,554.040000,927.220000,555.500000,926.260000,555.500000Z" transform="matrix(1 0 0 1 -13.47000000000000 -63.73000000000000)" fill="rgb(9,52,101)" stroke="none" stroke-width="1"/><path id="e38YbFGn9J732" d="M909,518.340000L863.120000,518.340000C862.570000,518.340000,862.120000,517.140000,862.120000,515.670000C862.120000,514.200000,862.560000,513,863.120000,513L909,513C909.550000,513,910,514.200000,910,515.670000C910,517.140000,909.560000,518.340000,909,518.340000Z" transform="matrix(1 0 0 1 -13.47000000000000 -63.73000000000000)" fill="rgb(9,52,101)" stroke="none" stroke-width="1"/><path id="e38YbFGn9J733" d="M1229.660000,225.830000L1353.600000,495.650000C1355.080000,498.880000,1355.240000,501.970000,1353.950000,502.560000C1352.660000,503.150000,1350.410000,501.020000,1348.950000,497.790000L1225,228C1223.600000,225.100000,1224,222.500000,1225,222C1226,221.500000,1228.310000,222.850000,1229.660000,225.830000Z" transform="matrix(1 0 0 1 -13.47000000000000 -63.73000000000000)" fill="rgb(9,52,101)" stroke="none" stroke-width="1"/><path id="e38YbFGn9J734" d="M1190.790000,309.930000L1277.170000,498C1278.170000,500.250000,1278.170000,502.490000,1277.010000,503C1275.850000,503.510000,1274.140000,502.110000,1273.110000,499.870000L1186.730000,311.800000C1185.730000,309.550000,1185.730000,307.310000,1186.890000,306.800000C1188.050000,306.290000,1189.760000,307.680000,1190.790000,309.930000Z" transform="matrix(1 0 0 1 -13.47000000000000 -63.73000000000000)" fill="rgb(9,52,101)" stroke="none" stroke-width="1"/><path id="e38YbFGn9J735" d="M1146,402L1191.350000,500.740000C1191.858102,501.844569,1191.374569,503.151898,1190.270000,503.660000C1189.165431,504.168102,1187.858102,503.684569,1187.350000,502.580000L1142,403.800000C1141.585230,403.074092,1141.615600,402.176269,1142.078474,401.480047C1142.541348,400.783826,1143.357478,400.408406,1144.187334,400.509971C1145.017191,400.611537,1145.718693,401.172699,1146,401.960000Z" transform="matrix(1 0 0 1 -13.47000000000000 -63.73000000000000)" fill="rgb(9,52,101)" stroke="none" stroke-width="1"/><path id="e38YbFGn9J736" d="M784.270000,231L574.920000,663.820000C572.420000,668.990000,569.220000,672.620000,567.790000,671.930000C566.360000,671.240000,567.210000,666.470000,569.710000,661.300000L779.060000,228.490000C779.866823,227.271251,781.450469,226.836786,782.766250,227.473209C784.082031,228.109633,784.724569,229.620871,784.270000,231.010000Z" transform="matrix(1 0 0 1 -13.47000000000000 -63.73000000000000)" fill="rgb(9,52,101)" stroke="none" stroke-width="1"/><path id="e38YbFGn9J737" d="M872.300000,236.790000L674.700000,665.300000C672.330000,670.420000,669.240000,674.030000,667.790000,673.360000C666.340000,672.690000,667.080000,668,669.440000,662.880000L867,234.360000C869.360000,229.240000,872.450000,225.630000,873.910000,226.300000C875.370000,226.970000,874.660000,231.660000,872.300000,236.790000Z" transform="matrix(1 0 0 1 -13.47000000000000 -63.73000000000000)" fill="rgb(9,52,101)" stroke="none" stroke-width="1"/><path id="e38YbFGn9J738" d="M954.410000,236.630000L754.880000,669.340000C754.040000,671.590000,752.130000,672.760000,750.960000,672.420000C749.790000,672.080000,748.510000,669.610000,749.620000,666.910000L949.160000,234.200000C951.540000,229.030000,954.650000,225.380000,956.160000,226.050000C957.670000,226.720000,956.800000,231.460000,954.410000,236.630000Z" transform="matrix(1 0 0 1 -13.47000000000000 -63.73000000000000)" fill="rgb(9,52,101)" stroke="none" stroke-width="1"/><path id="e38YbFGn9J739" d="M1278.350000,107.560000L1250.450000,67.610000C1250.120000,67.130000,1251.020000,65.920000,1252.450000,64.900000C1253.880000,63.880000,1255.350000,63.450000,1255.690000,63.900000L1283.590000,103.850000C1283.920000,104.330000,1283.010000,105.540000,1281.590000,106.560000C1280.170000,107.580000,1278.680000,108,1278.350000,107.560000Z" transform="matrix(1 0 0 1 -13.47000000000000 -63.73000000000000)" fill="rgb(9,52,101)" stroke="none" stroke-width="1"/><path id="e38YbFGn9J740" d="M1054.380000,516.200000L979.480000,516.200000C978.580000,516.200000,977.860000,515.030000,977.860000,513.600000C977.860000,512.170000,978.580000,511,979.480000,511L1054.380000,511C1055.270000,511,1056,512.160000,1056,513.600000C1056,515.040000,1055.270000,516.200000,1054.380000,516.200000Z" transform="matrix(1 0 0 1 -13.47000000000000 -63.73000000000000)" fill="rgb(9,52,101)" stroke="none" stroke-width="1"/><path id="e38YbFGn9J741" d="M1075.840000,555.740000L995.330000,555.740000C994.330000,555.740000,993.590000,554.680000,993.590000,553.370000C993.590000,552.060000,994.370000,551,995.330000,551L1075.840000,551C1076.840000,551,1077.590000,552.060000,1077.590000,553.370000C1077.590000,554.680000,1076.800000,555.740000,1075.840000,555.740000Z" transform="matrix(1 0 0 1 -13.47000000000000 -63.73000000000000)" fill="rgb(9,52,101)" stroke="none" stroke-width="1"/><path id="e38YbFGn9J742" d="M1189.110000,503.910000L1101.940000,503.910000C1100.832745,503.659276,1100.046656,502.675287,1100.046656,501.540000C1100.046656,500.404713,1100.832745,499.420724,1101.940000,499.170000L1189.110000,499.170000C1190.217255,499.420724,1191.003344,500.404713,1191.003344,501.540000C1191.003344,502.675287,1190.217255,503.659276,1189.110000,503.910000Z" transform="matrix(1 0 0 1 -13.47000000000000 -63.73000000000000)" fill="rgb(9,52,101)" stroke="none" stroke-width="1"/><path id="e38YbFGn9J743" d="M927.060000,397.610000L1047.160000,659.070000C1048.590000,662.200000,1048.600000,665.260000,1047.160000,665.920000C1045.720000,666.580000,1043.410000,664.570000,1041.980000,661.440000L921.900000,400C920.460000,396.880000,920.460000,393.810000,921.900000,393.160000C923.340000,392.510000,925.620000,394.490000,927.060000,397.610000Z" transform="matrix(1 0 0 1 -13.47000000000000 -63.73000000000000)" fill="rgb(9,52,101)" stroke="none" stroke-width="1"/><path id="e38YbFGn9J744" d="" transform="matrix(1 0 0 1 -13.47000000000000 -63.73000000000000)" fill="none" stroke="rgb(198,225,0)" stroke-width="1" stroke-miterlimit="10"/><path id="e38YbFGn9J745" d="" transform="matrix(1 0 0 1 -13.47000000000000 -63.73000000000000)" fill="none" stroke="rgb(198,225,0)" stroke-width="1" stroke-miterlimit="10"/><path id="e38YbFGn9J746" d="" transform="matrix(1 0 0 1 -13.47000000000000 -63.73000000000000)" fill="rgb(68,91,197)" stroke="none" stroke-width="1"/><path id="e38YbFGn9J747" d="" transform="matrix(1 0 0 1 -13.47000000000000 -63.73000000000000)" fill="rgb(243,243,255)" stroke="none" stroke-width="1"/><path id="e38YbFGn9J748" d="" transform="matrix(1 0 0 1 -13.47000000000000 -63.73000000000000)" fill="rgb(243,243,255)" stroke="none" stroke-width="1"/><path id="e38YbFGn9J749" d="" transform="matrix(1 0 0 1 -13.47000000000000 -63.73000000000000)" fill="rgb(243,243,255)" stroke="none" stroke-width="1"/><path id="e38YbFGn9J750" d="" transform="matrix(1 0 0 1 -13.47000000000000 -63.73000000000000)" fill="rgb(243,243,255)" stroke="none" stroke-width="1"/><path id="e38YbFGn9J751" d="M415.670000,231.410000L201.920000,664.550000C199.360000,669.730000,196.130000,673.350000,194.690000,672.650000C193.250000,671.950000,194.170000,667.170000,196.690000,661.990000L410.480000,228.850000C411.376877,227.838634,412.839361,227.551993,414.051663,228.149968C415.263965,228.747943,415.926623,230.082825,415.670000,231.410000Z" transform="matrix(1 0 0 1 -13.47000000000000 -63.73000000000000)" fill="rgb(9,52,101)" stroke="none" stroke-width="1"/><path id="e38YbFGn9J752" d="M596.520000,236.660000L389.280000,665.110000C386.810000,670.230000,383.630000,673.820000,382.190000,673.110000C380.750000,672.400000,381.600000,667.690000,384.070000,662.570000L591.310000,234.140000C593.790000,229.020000,596.960000,225.430000,598.400000,226.140000C599.840000,226.850000,599,231.540000,596.520000,236.660000Z" transform="matrix(1 0 0 1 -13.47000000000000 -63.73000000000000)" fill="rgb(9,52,101)" stroke="none" stroke-width="1"/><path id="e38YbFGn9J753" d="M506.260000,238.540000L300,665C297.540000,670.100000,294.370000,673.670000,292.930000,673C291.490000,672.330000,292.330000,667.600000,294.790000,662.500000L501.050000,236C503.510000,230.900000,506.680000,227.330000,508.120000,228C509.560000,228.670000,508.720000,233.440000,506.260000,238.540000Z" transform="matrix(1 0 0 1 -13.47000000000000 -63.73000000000000)" fill="rgb(9,52,101)" stroke="none" stroke-width="1"/><path id="e38YbFGn9J754" d="M804,562L72.550000,562C70.893146,562,69.550000,560.656854,69.550000,559C69.550000,557.343146,70.893146,556,72.550000,556L804,556" transform="matrix(1 0 0 1 -13.47000000000000 -63.73000000000000)" fill="rgb(9,52,101)" stroke="none" stroke-width="1"/><path id="e38YbFGn9J755" d="M850,458L123.530000,458C121.873146,458,120.530000,456.656854,120.530000,455C120.530000,453.343146,121.873146,452,123.530000,452L850,452" transform="matrix(1 0 0 1 -13.47000000000000 -63.73000000000000)" fill="rgb(9,52,101)" stroke="none" stroke-width="1"/><path id="e38YbFGn9J756" d="M907,338L183.510000,338C181.853146,338,180.510000,336.656854,180.510000,335C180.510000,333.343146,181.853146,332,183.510000,332L907,332" transform="matrix(1 0 0 1 -13.47000000000000 -63.73000000000000)" fill="rgb(9,52,101)" stroke="none" stroke-width="1"/><path id="e38YbFGn9J757" d="M956,232L235.500000,232C233.843146,232,232.500000,230.656854,232.500000,229C232.500000,227.343146,233.843146,226,235.500000,226L956,226" transform="matrix(1 0 0 1 -13.47000000000000 -63.73000000000000)" fill="rgb(9,52,101)" stroke="none" stroke-width="1"/><path id="e38YbFGn9J758" d="M981.170000,266.600000L778.680000,705.710000C777.830000,708,775.910000,709.190000,774.730000,708.860000C773.550000,708.530000,772.290000,706.030000,773.420000,703.290000L975.910000,264.180000C978.330000,258.930000,981.470000,255.180000,982.910000,255.890000C984.350000,256.600000,983.590000,261.350000,981.170000,266.600000Z" transform="matrix(1 0 0 1 -13.47000000000000 -63.73000000000000)" fill="rgb(9,52,101)" stroke="none" stroke-width="1"/><path id="e38YbFGn9J759" d="" transform="matrix(1 0 0 1 -13.47000000000000 -63.73000000000000)" fill="rgb(232,156,53)" stroke="none" stroke-width="1"/><path id="e38YbFGn9J760" d="M520.490000,69L442.120000,227.800000C441.190000,229.700000,439.260000,230.670000,437.830000,229.960000C436.400000,229.250000,436,227.140000,436.930000,225.240000L515.300000,66.460000C516.240000,64.560000,518.160000,63.600000,519.590000,64.310000C521.020000,65.020000,521.430000,67.130000,520.490000,69Z" transform="matrix(1 0 0 1 -13.47000000000000 -63.73000000000000)" fill="rgb(9,52,101)" stroke="none" stroke-width="1"/><path id="e38YbFGn9J761" d="M608.870000,69.590000L536,230.160000C535.130000,232.080000,533.240000,233.100000,531.790000,232.440000C530.340000,231.780000,529.860000,229.690000,530.730000,227.770000L603.600000,67.200000C604.470000,65.280000,606.360000,64.200000,607.810000,64.920000C609.260000,65.640000,609.740000,67.670000,608.870000,69.590000Z" transform="matrix(1 0 0 1 -13.47000000000000 -63.73000000000000)" fill="rgb(9,52,101)" stroke="none" stroke-width="1"/><path id="e38YbFGn9J762" d="M699.550000,70.400000L627.370000,229.400000C626.510000,231.300000,624.630000,232.300000,623.180000,231.640000C621.730000,230.980000,621.240000,228.900000,622.100000,227L694.280000,68C695.140000,66.100000,697.020000,65.090000,698.470000,65.750000C699.920000,66.410000,700.410000,68.500000,699.550000,70.400000Z" transform="matrix(1 0 0 1 -13.47000000000000 -63.73000000000000)" fill="rgb(9,52,101)" stroke="none" stroke-width="1"/><path id="e38YbFGn9J763" d="M793.930000,70.100000L722.100000,228.280000C721.240000,230.170000,719.370000,231.170000,717.910000,230.510000C716.450000,229.850000,715.970000,227.780000,716.830000,225.890000L788.660000,67.700000C789.520000,65.810000,791.390000,64.820000,792.850000,65.480000C794.310000,66.140000,794.790000,68.210000,793.930000,70.100000Z" transform="matrix(1 0 0 1 -13.47000000000000 -63.73000000000000)" fill="rgb(9,52,101)" stroke="none" stroke-width="1"/><path id="e38YbFGn9J764" d="M885.190000,70.250000L812.760000,229.770000C811.890000,231.680000,810.010000,232.690000,808.550000,232.030000C807.090000,231.370000,806.620000,229.280000,807.490000,227.380000L879.920000,67.860000C880.790000,65.950000,882.670000,64.940000,884.120000,65.600000C885.570000,66.260000,886.060000,68.340000,885.190000,70.250000Z" transform="matrix(1 0 0 1 -13.47000000000000 -63.73000000000000)" fill="rgb(9,52,101)" stroke="none" stroke-width="1"/><path id="e38YbFGn9J765" d="M979.410000,70.300000L908,227.680000C907.140000,229.560000,905.270000,230.550000,903.820000,229.890000C902.370000,229.230000,901.870000,227.170000,902.730000,225.290000L974.140000,67.900000C975,66.020000,976.870000,65.030000,978.330000,65.690000C979.790000,66.350000,980.270000,68.420000,979.410000,70.300000Z" transform="matrix(1 0 0 1 -13.47000000000000 -63.73000000000000)" fill="rgb(9,52,101)" stroke="none" stroke-width="1"/><path id="e38YbFGn9J766" d="M1069.370000,72.290000L975.750000,278.470000C974.630000,280.930000,972.540000,282.400000,971.090000,281.730000C969.640000,281.060000,969.360000,278.540000,970.480000,276.070000L1064.100000,69.890000C1065.220000,67.430000,1067.310000,65.970000,1068.760000,66.630000C1070.210000,67.290000,1070.490000,69.820000,1069.370000,72.290000Z" transform="matrix(1 0 0 1 -13.47000000000000 -63.73000000000000)" fill="rgb(9,52,101)" stroke="none" stroke-width="1"/><path id="e38YbFGn9J767" d="M1163.930000,76L972.240000,483.630000C969.950000,488.500000,966.920000,491.900000,965.470000,491.220000C964.020000,490.540000,964.710000,486.040000,967,481.160000L1158.700000,73.520000C1160.990000,68.650000,1164.020000,65.250000,1165.460000,65.930000C1166.900000,66.610000,1166.230000,71.110000,1163.930000,76Z" transform="matrix(1 0 0 1 -13.47000000000000 -63.73000000000000)" fill="rgb(9,52,101)" stroke="none" stroke-width="1"/><path id="e38YbFGn9J768" d="M1205,177.190000L468.580000,177.190000C466.923146,177.190000,465.580000,175.846854,465.580000,174.190000C465.580000,172.533146,466.923146,171.190000,468.580000,171.190000L1205,171.190000" transform="matrix(1 0 0 1 -13.47000000000000 -63.73000000000000)" fill="rgb(9,52,101)" stroke="none" stroke-width="1"/><path id="e38YbFGn9J769" d="M1152,298L964.910000,298C964.420000,298.220000,964,296.730000,964,295C964,293.270000,964.420000,291.780000,964.910000,292L1152,292" transform="matrix(1 0 0 1 -13.47000000000000 -63.73000000000000)" fill="rgb(9,52,101)" stroke="none" stroke-width="1"/><path id="e38YbFGn9J770" d="M1256,70L519.580000,70C517.923146,70,516.580000,68.656854,516.580000,67C516.580000,65.343146,517.923146,64,519.580000,64L1256,64" transform="matrix(1 0 0 1 -13.47000000000000 -63.73000000000000)" fill="rgb(9,52,101)" stroke="none" stroke-width="1"/><path id="e38YbFGn9J771" d="M1108,397L923.890000,397C923.410000,397.220000,923,395.730000,923,394C923,392.270000,923.410000,390.780000,923.890000,391L1108,391" transform="matrix(1 0 0 1 -13.47000000000000 -63.73000000000000)" fill="rgb(9,52,101)" stroke="none" stroke-width="1"/><path id="e38YbFGn9J772" d="M1254.720000,75.840000L1055.920000,513.240000C1055.070000,515.530000,1053.220000,516.760000,1052.060000,516.460000C1050.900000,516.160000,1049.600000,513.680000,1050.650000,510.850000L1249.450000,73.450000C1251.820000,68.220000,1254.930000,64.510000,1256.390000,65.180000C1257.850000,65.850000,1257.090000,70.610000,1254.720000,75.840000Z" transform="matrix(1 0 0 1 -13.47000000000000 -63.73000000000000)" fill="rgb(9,52,101)" stroke="none" stroke-width="1"/><path id="e38YbFGn9J773" d="M1283.100000,104.920000L1079.870000,552.080000C1079.382991,553.424070,1078.335459,554.489852,1077,555C1076.360000,555.266667,1075.640000,555.266667,1075,555C1073.920000,554.370000,1073.630000,552.180000,1074.610000,549.680000L1277.840000,102.530000C1278.671727,102.211966,1279.584383,102.173354,1280.440000,102.420000C1281.651775,102.820590,1282.625103,103.735372,1283.100000,104.920000Z" transform="matrix(1 0 0 1 -13.47000000000000 -63.73000000000000)" fill="rgb(9,52,101)" stroke="none" stroke-width="1"/><path id="e38YbFGn9J774" d="M886.060000,667.270000L796.260000,667.270000C795.180000,667.270000,794.260000,666.090000,794.260000,664.630000C794.260000,663.170000,795.130000,662,796.260000,662L886.060000,662C887.130000,662,888,663.180000,888,664.630000C888,666.080000,887.130000,667.270000,886.060000,667.270000Z" transform="matrix(1 0 0 1 -13.47000000000000 -63.73000000000000)" fill="rgb(9,52,101)" stroke="none" stroke-width="1"/><path id="e38YbFGn9J775" d="" transform="matrix(1 0 0 1 -13.47000000000000 -63.73000000000000)" fill="rgb(243,243,255)" stroke="none" stroke-width="1"/><path id="e38YbFGn9J776" d="M1046.530000,666.580000L978.470000,666.580000C977.660000,666.580000,977,665.400000,977,663.940000C977,662.480000,977.660000,661.310000,978.470000,661.310000L1046.530000,661.310000C1047.340000,661.310000,1048,662.490000,1048,663.940000C1048,665.390000,1047.340000,666.580000,1046.530000,666.580000Z" transform="matrix(1 0 0 1 -13.47000000000000 -63.73000000000000)" fill="rgb(9,52,101)" stroke="none" stroke-width="1"/><path id="e38YbFGn9J777" d="M1353.340000,503.170000L1276.660000,503.170000C1275.740000,503.170000,1275,502.110000,1275,500.800000C1275,499.490000,1275.740000,498.430000,1276.660000,498.430000L1353.340000,498.430000C1354.260000,498.430000,1355,499.490000,1355,500.800000C1355,502.110000,1354.260000,503.170000,1353.340000,503.170000Z" transform="matrix(1 0 0 1 -13.47000000000000 -63.73000000000000)" fill="rgb(9,52,101)" stroke="none" stroke-width="1"/><path id="e38YbFGn9J778" d="" transform="matrix(1 0 0 1 -13.47000000000000 -63.73000000000000)" fill="rgb(243,243,255)" stroke="none" stroke-width="1"/><path id="e38YbFGn9J779" d="" transform="matrix(1 0 0 1 -13.47000000000000 -63.73000000000000)" fill="rgb(243,243,255)" stroke="none" stroke-width="1"/><path id="e38YbFGn9J780" d="" transform="matrix(1 0 0 1 -13.47000000000000 -63.73000000000000)" fill="rgb(243,243,255)" stroke="none" stroke-width="1"/></svg>