<svg id="Layer_1" data-name="Layer 1" xmlns="http://www.w3.org/2000/svg" viewBox="0 0 770.52 683"><defs><style>.cls-1{fill:#f7f8fc;}.cls-2{fill:#093465;}.cls-3{fill:#e89c35;}.cls-4{fill:#4d83d0;}.cls-5{fill:#4275bb;}.cls-6{fill:#195dba;}.cls-7{fill:#8cbded;}.cls-8{fill:#6e75f4;}</style></defs><path class="cls-1" d="M1066.09,117.4a53.82,53.82,0,0,0-53.54-54.1L357.4,60a53.82,53.82,0,0,0-54.08,53.56l-.44,86.79,762.77,3.85Z" transform="translate(-299.65 -56)"/><path class="cls-2" d="M358.13,56l654.57,3.31a57.86,57.86,0,0,1,57.47,58.11l-.44,86.79a4,4,0,0,1-4,4l-762.1-3.85a4,4,0,0,1-4-4l.44-86.79A57.85,57.85,0,0,1,358.13,56Zm705.54,144.18.41-82.79a51.75,51.75,0,0,0-14.49-35.3,52.36,52.36,0,0,0-34.81-15.38L356.37,64a50,50,0,0,0-50.29,49.58l-.41,82.8Z" transform="translate(-299.65 -56)"/><rect class="cls-1" x="4.26" y="111.37" width="762.66" height="330.03"/><path class="cls-2" d="M1066.1,501.39H304a4,4,0,0,1-4-4v-330a4,4,0,0,1,4-4H1066.1a4,4,0,0,1,4,4v330A4,4,0,0,1,1066.1,501.39Zm-760.1-8h758V170H306Z" transform="translate(-299.65 -56)"/><ellipse class="cls-3" cx="685.59" cy="332.66" rx="78.36" ry="78.33" transform="translate(51.45 961.36) rotate(-89.85)"/><path class="cls-2" d="M696.31,351.16a9.6,9.6,0,0,0-2.39-6.84q-2.38-2.54-8.09-4.69a95.85,95.85,0,0,1-9.85-4.27,31.28,31.28,0,0,1-7.1-4.88,19.58,19.58,0,0,1-4.61-6.47,21.71,21.71,0,0,1-1.65-8.85q0-8.87,5.66-14.52t15-6.61V282.82h8.39v11.37q9.27,1.31,14.51,7.73t5.24,16.64H696.31c0-4.19-.87-7.33-2.6-9.4a8.56,8.56,0,0,0-6.94-3.12,8.84,8.84,0,0,0-6.65,2.43,9.3,9.3,0,0,0-2.36,6.74,8.9,8.9,0,0,0,2.3,6.39q2.31,2.41,8.57,4.93a98.21,98.21,0,0,1,10.3,4.74,30.24,30.24,0,0,1,6.81,5,19.55,19.55,0,0,1,4.24,6.39,22,22,0,0,1,1.47,8.36q0,8.91-5.56,14.47t-15.29,6.55V382.5h-8.33V372.12q-10.74-1.15-16.64-7.62t-5.89-17.22h15.14q0,6.24,3,9.57c2,2.22,4.81,3.32,8.51,3.32a10.41,10.41,0,0,0,7.28-2.43A8.45,8.45,0,0,0,696.31,351.16Z" transform="translate(-299.65 -56)"/><polygon class="cls-1" points="488.35 677.72 285.35 677.72 316.76 578.01 456.93 578.01 488.35 677.72"/><path class="cls-2" d="M785.19,737.71H585.29a4,4,0,0,1-3.81-5.17l30.94-99.71a4,4,0,0,1,3.81-2.81h138a4,4,0,0,1,3.82,2.81L789,732.54a4,4,0,0,1-3.81,5.17Zm-198.19-8H784L754.34,638H616.65Z" transform="translate(-299.65 -56)"/><path class="cls-1" d="M303.91,584.18A53.82,53.82,0,0,0,357.73,638h655.21a53.82,53.82,0,0,0,53.82-53.83V497.4H303.91Z" transform="translate(-299.65 -56)"/><path class="cls-2" d="M1012.25,638H357.68c-31.85,0-57.76-25.24-57.76-56.26V497.29a3.94,3.94,0,0,1,4-3.89H1066a5.09,5.09,0,0,1,1.62.65,5.93,5.93,0,0,1,2.37,4.62v83.07C1070,612.76,1044.09,638,1012.25,638ZM306,499v84.29c0,28,22.45,50.73,50,50.73H1014c27.59,0,50-22.76,50-50.73V499Z" transform="translate(-299.65 -56)"/><path class="cls-1" d="M712.07,563.7a26.83,26.83,0,1,1-26.83-26.83A26.84,26.84,0,0,1,712.07,563.7Z" transform="translate(-299.65 -56)"/><path class="cls-2" d="M685.24,594.53a30.83,30.83,0,1,1,30.82-30.83A30.85,30.85,0,0,1,685.24,594.53Zm0-53.67a22.85,22.85,0,1,0,22.84,22.84A22.86,22.86,0,0,0,685.24,540.86Z" transform="translate(-299.65 -56)"/><path class="cls-1" d="M698.33,563.7a13.09,13.09,0,1,1-13.09-13.08A13.1,13.1,0,0,1,698.33,563.7Z" transform="translate(-299.65 -56)"/><path class="cls-2" d="M685.24,580.79a17.09,17.09,0,1,1,17.08-17.09A17.1,17.1,0,0,1,685.24,580.79Zm0-26.18a9.1,9.1,0,1,0,9.1,9.09A9.1,9.1,0,0,0,685.24,554.61Z" transform="translate(-299.65 -56)"/><path class="cls-1" d="M835.87,729.21c0,4.62-4.39,8.37-9.8,8.37H541.17c-5.41,0-9.79-3.75-9.79-8.37h0c0-4.62,4.38-8.36,9.79-8.36h284.9c5.41,0,9.8,3.74,9.8,8.36Z" transform="translate(-299.65 -56)"/><path class="cls-2" d="M823.5,739h-279c-7.44,0-13.5-4.26-13.5-9.5s6.06-9.5,13.5-9.5h279c7.44,0,13.5,4.26,13.5,9.5S830.94,739,823.5,739ZM541.18,724.84c-3.15,0-5.81,2-5.81,4.37s2.66,4.37,5.81,4.37H826.07c3.15,0,5.81-2,5.81-4.37s-2.66-4.37-5.81-4.37Z" transform="translate(-299.65 -56)"/><path class="cls-2" d="M1022.3,329.86H809.57c-2.21,0-4-2.25-4-5s1.79-5,4-5H1022.3c2.2,0,4,2.25,4,5S1024.5,329.86,1022.3,329.86Z" transform="translate(-299.65 -56)"/><path class="cls-2" d="M887.65,354.57H809.57c-2.21,0-4-2.24-4-5s1.79-5,4-5h78.08c2.21,0,4,2.24,4,5S889.86,354.57,887.65,354.57Z" transform="translate(-299.65 -56)"/><path class="cls-4" d="M1022.3,354.57H913.81c-2.2,0-4-2.24-4-5s1.79-5,4-5H1022.3c2.2,0,4,2.24,4,5S1024.5,354.57,1022.3,354.57Z" transform="translate(-299.65 -56)"/><path class="cls-5" d="M1022.3,437H944.21c-2.2,0-4-2.24-4-5s1.79-5,4-5h78.09c2.2,0,4,2.24,4,5S1024.5,437,1022.3,437Z" transform="translate(-299.65 -56)"/><path class="cls-6" d="M918.05,437H809.57c-2.21,0-4-2.24-4-5s1.79-5,4-5H918.05c2.2,0,4,2.24,4,5S920.25,437,918.05,437Z" transform="translate(-299.65 -56)"/><path class="cls-2" d="M1022.3,381.39H956.84c-2.2,0-4-2.25-4-5s1.79-5,4-5h65.46c2.2,0,4,2.24,4,5S1024.5,381.39,1022.3,381.39Z" transform="translate(-299.65 -56)"/><path class="cls-4" d="M929.08,381.39H809.57c-2.21,0-4-2.25-4-5s1.79-5,4-5H929.08c2.2,0,4,2.24,4,5S931.28,381.39,929.08,381.39Z" transform="translate(-299.65 -56)"/><path class="cls-4" d="M1022.3,408.45H970.51c-2.21,0-4-2.24-4-5s1.78-5,4-5h51.79c2.2,0,4,2.25,4,5S1024.5,408.45,1022.3,408.45Z" transform="translate(-299.65 -56)"/><path class="cls-5" d="M945.35,408.45H893.56c-2.21,0-4-2.24-4-5s1.78-5,4-5h51.79c2.2,0,4,2.25,4,5S947.55,408.45,945.35,408.45Z" transform="translate(-299.65 -56)"/><path class="cls-2" d="M867.05,408.45H809.57c-2.21,0-4-2.24-4-5s1.79-5,4-5h57.48c2.2,0,4,2.25,4,5S869.25,408.45,867.05,408.45Z" transform="translate(-299.65 -56)"/><rect class="cls-2" x="506.89" y="165.53" width="220.29" height="26.47"/><rect class="cls-5" x="506.89" y="204.44" width="62.41" height="26.47"/><rect class="cls-4" x="583.56" y="204.44" width="66.45" height="26.47"/><rect class="cls-2" x="663.07" y="204.44" width="64.11" height="26.47"/><path class="cls-7" d="M566.26,454.33h-51V373.28h51Z" transform="translate(-299.65 -56)"/><path class="cls-4" d="M490.49,454.33h-51V293.26h51Z" transform="translate(-299.65 -56)"/><path class="cls-2" d="M413.4,458.33H356.81V240.11H413.4Z" transform="translate(-299.65 -56)"/><path class="cls-8" d="M262.17,447" transform="translate(-299.65 -56)"/></svg>